<svg width="121" height="121" viewBox="0 0 121 121" fill="none" xmlns="http://www.w3.org/2000/svg">
<path d="M71.3958 92.6948C73.5331 88.841 75.2768 84.1715 76.9642 81.1616C81.2108 81.1616 82.3638 81.1616 87.3135 81.1616C78.3141 66.0279 69.849 51.7942 60.3433 35.8728C55.1687 44.1992 50.7815 51.2598 45.663 59.4736C43.0195 55.5355 40.9665 52.4693 38.4916 48.7562C45.5506 36.9417 52.4689 25.3523 60.2027 12.3845C76.5704 39.7266 92.0944 65.6622 108.265 92.6948H71.3958ZM45.6068 109.291C53.3969 96.0985 60.2027 84.6216 67.121 72.9196C64.6743 69.2909 62.5651 66.1685 59.9777 62.3429C54.8875 70.4161 50.444 77.4766 45.3537 85.578C40.1228 77.0266 35.8481 70.0223 30.7015 61.6396C24.0644 72.779 18.3273 82.3712 12.0277 92.948H26.3987C28.0298 90.2194 28.8173 89.0942 31.0952 85.7468C36.1293 93.9044 40.4884 100.993 45.6068 109.319V109.291Z" fill="white"/>
</svg>
