<svg width="121" height="121" viewBox="0 0 121 121" fill="none" xmlns="http://www.w3.org/2000/svg">
<path fill-rule="evenodd" clip-rule="evenodd" d="M60.3211 19.8581C60.6765 20.4123 60.9902 20.9873 61.2621 21.5833C66.5073 30.7684 71.7876 39.9175 77.1029 49.0301C77.1029 49.0824 77.1029 49.1347 77.1029 49.187C79.5646 53.4845 82.0216 57.7714 84.4743 62.0478C87.0733 66.7382 89.7395 71.3911 92.4731 76.0064C92.4616 76.2459 92.5662 76.4028 92.7868 76.4769C92.8639 76.8407 93.0208 77.1543 93.2573 77.418C88.6301 77.6266 83.9773 77.6266 79.2986 77.418C77.2908 73.8695 75.2518 70.3668 73.1819 66.9098C68.9038 59.3112 64.5907 51.7307 60.2427 44.1681C58.8242 46.4834 57.4911 48.836 56.2433 51.2259C55.3019 52.7184 54.3871 54.2345 53.4986 55.7742C53.394 55.931 53.394 56.0879 53.4986 56.2447C57.2304 62.711 60.9684 69.1414 64.7126 75.5359C64.9866 76.1366 65.3003 76.7117 65.6536 77.2611C65.7058 77.3657 65.7582 77.4702 65.8105 77.5748C61.1575 77.5748 56.5047 77.5748 51.8518 77.5748C51.6968 77.3717 51.54 77.1626 51.3813 76.9475C49.7382 74.0806 48.0914 71.2053 46.4408 68.3213C42.6719 74.7098 38.9861 81.1402 35.3837 87.6125C35.3837 87.6647 35.3837 87.7171 35.3837 87.7693C32.7474 92.0987 30.1856 96.4902 27.6986 100.944C27.583 101.227 27.4262 101.488 27.2281 101.728C22.5764 101.885 17.9234 101.937 13.2694 101.885C13.3651 101.745 13.4173 101.588 13.4262 101.414C13.6468 101.34 13.7514 101.183 13.7399 100.944C14.5883 99.7191 15.3202 98.4121 15.9357 97.0229C21.3344 87.8471 26.6147 78.5936 31.7764 69.2624C37.0289 60.3269 42.2046 51.3349 47.3035 42.2861C47.3035 42.2338 47.3035 42.1814 47.3035 42.1292C51.2113 35.412 55.08 28.6679 58.9095 21.897C59.3946 21.2936 59.7606 20.614 60.0074 19.8581C60.1479 19.7003 60.2524 19.7003 60.3211 19.8581Z" fill="white"/>
<path fill-rule="evenodd" clip-rule="evenodd" d="M99.6877 89.6514C100.078 89.6108 100.339 89.7676 100.472 90.1219C102.396 93.6132 104.383 97.0636 106.432 100.473C106.551 100.766 106.708 101.028 106.902 101.258C106.911 101.431 106.963 101.588 107.059 101.728C85.128 101.885 63.1705 101.937 41.1867 101.885C41.2824 101.745 41.3346 101.588 41.3436 101.414C41.5376 101.185 41.6944 100.923 41.8141 100.63C43.8924 97.1537 45.9313 93.6508 47.9308 90.1219C47.983 90.0173 48.0354 89.9129 48.0877 89.8083C65.2876 89.7717 82.4876 89.7195 99.6877 89.6514Z" fill="white"/>
</svg>
