<?xml version="1.0" encoding="UTF-8"?><svg id="Layer_2" xmlns="http://www.w3.org/2000/svg" xmlns:xlink="http://www.w3.org/1999/xlink" viewBox="0 0 441.08 219.98"><defs><style>.cls-1{fill:#fff;}.cls-2{fill:#0026ff;}.cls-3{fill:url(#linear-gradient);}</style><linearGradient id="linear-gradient" x1="310.13" y1="162.61" x2="210.09" y2="161.09" gradientUnits="userSpaceOnUse"><stop offset=".13" stop-color="#fff"/><stop offset=".42" stop-color="#a7a7ff"/><stop offset=".82" stop-color="#3030ff"/><stop offset="1" stop-color="blue"/></linearGradient></defs><g id="Layer_1-2"><path class="cls-1" d="M437.9,41.84l-78.35,156.1c-5.54,11.03-15.35,18.25-26.27,20.9l-8.04-61.23,59.48-105.64-43.74,15.34-105.45,36.99-54.87,19.25-102.3,35.88c-3.25,1.14-5.17-3.56-2.05-5.02l89.46-41.9,48.74-22.83,129.15-60.5,56.27-26.35c24.75-11.6,50.23,14.58,37.97,39.01Z"/><path class="cls-2" d="M214.51,89.68l-48.74,22.83-74.11-54.98L5.91,167.07c-2.44,3.12-7.3.06-5.53-3.49L56.15,51.16c13.92-28.06,49.51-37.19,75.22-19.31l83.14,57.83Z"/><path class="cls-3" d="M333.5,218.5c-11.04,2.68-23.21.7-33.23-6.73l-119.39-88.56,54.87-19.25,86.03,59.84,3.68-6.53,8.04,61.23Z"/></g></svg>