<svg width="376" height="178" viewBox="0 0 376 178" fill="none" xmlns="http://www.w3.org/2000/svg">
<path d="M236.529 97.9019C235.93 98.2055 235.299 98.509 234.708 98.8126C219.368 106.387 205.913 113.122 178.941 113.873L128.647 0.30957H79.2073L0.829834 177.773H51.9549L74.062 122.781C89.0184 133.447 111.118 143.69 142.876 147.884L154.844 177.781H207.24L194.4 148.795C212.201 146.87 225.416 142.595 236.529 137.682V177.829H286.728V117.261C301.245 114.272 320.164 113.218 348.159 115.926V79.7975C322.121 77.4966 302.547 78.3354 286.728 80.8122V39.1707H375.707V0.381485H236.529V97.9019ZM87.9318 88.2824L103.503 49.5331L127.065 108.392C107.45 103.079 95.2503 94.9697 87.9318 88.2824Z" fill="white"/>
</svg>
