<svg width="116" height="55" viewBox="0 0 116 55" fill="none" xmlns="http://www.w3.org/2000/svg">
<path d="M115.001 0.344428H95.7117C88.2556 0.344428 80.7996 0.344428 73.3436 0.345828C72.8031 0.345828 72.7905 0.35843 72.7877 0.889104V1.20415C72.7877 10.6919 72.7849 20.1796 72.7975 29.6673C72.7989 30.1182 72.6715 30.3744 72.25 30.5494C71.7011 30.7749 71.1789 31.0647 70.644 31.3251C68.5619 32.3333 66.4462 33.2476 64.2129 33.8735C62.5004 34.3538 60.7642 34.6996 58.9972 34.8746C57.849 34.9895 56.6966 35.0553 55.5471 35.1449C55.2964 35.1645 55.1326 35.0791 55.0262 34.8354C54.5613 33.7657 54.0825 32.7029 53.6106 31.6374C52.6081 29.3649 51.6083 27.0896 50.603 24.8184C49.6873 22.749 48.7631 20.6837 47.846 18.6156C46.8491 16.3655 45.8591 14.1125 44.8636 11.8624C43.9703 9.84615 43.0741 7.83267 42.1808 5.81639C41.4345 4.13196 40.684 2.44892 39.9489 0.758886C39.8145 0.449442 39.6339 0.326225 39.288 0.330426C37.794 0.347228 36.3 0.337427 34.8074 0.337427C31.5155 0.337427 28.2251 0.338827 24.9346 0.337427C24.6882 0.336027 24.4893 0.354229 24.3717 0.631468C23.9811 1.54299 23.5652 2.44332 23.1662 3.35065C21.752 6.56269 20.3434 9.77894 18.925 12.9896C17.0823 17.1608 15.2285 21.3278 13.3844 25.4989C11.8344 29.0078 10.29 32.5209 8.74135 36.0312C7.55398 38.7196 6.36242 41.4066 5.17505 44.0949C3.83086 47.1347 2.48808 50.176 1.14529 53.2172C0.926858 53.7129 0.715428 54.2113 0.468994 54.7812H15.2845C16.1918 54.7812 16.203 54.7854 16.5474 53.9383C17.697 51.1071 18.8382 48.2731 19.9807 45.4391C20.9314 43.0798 21.878 40.7205 22.8287 38.3625C22.9827 37.9789 22.9897 37.9789 23.337 38.2183C25.5157 39.7193 27.8316 40.9697 30.2637 42.0044C32.2086 42.832 34.2025 43.518 36.2412 44.0767C38.6859 44.746 41.1601 45.2529 43.6706 45.5875C43.9465 45.6253 44.1061 45.7444 44.2097 46.0034C45.3228 48.801 46.4472 51.593 47.5576 54.3906C47.6682 54.6692 47.8096 54.7868 48.119 54.7868C53.2185 54.7784 58.3181 54.7812 63.4176 54.7798C63.5366 54.7798 63.6556 54.7546 63.8334 54.735C63.6542 54.3163 63.503 53.9537 63.3434 53.5938C62.2596 51.1407 61.1745 48.6876 60.0851 46.2386C59.9787 46.0006 60.0137 45.9026 60.2853 45.8746C60.9112 45.8088 61.5371 45.7388 62.1588 45.6393C65.0208 45.1801 67.8254 44.494 70.539 43.4578C71.2559 43.1848 71.9658 42.8922 72.7569 42.5771C72.7709 42.8067 72.7863 42.965 72.7877 43.1218C72.7891 46.8337 72.7877 50.5442 72.7877 54.2547C72.7886 54.63 72.9767 54.8181 73.352 54.819H87.6704C88.068 54.819 88.2673 54.6188 88.2682 54.2183V36.9231C88.2682 36.8069 88.2738 36.6893 88.2682 36.5731C88.2542 36.3308 88.3551 36.223 88.6057 36.1866C89.5284 36.055 90.4427 35.8534 91.3697 35.7652C93.0849 35.6013 94.8057 35.4403 96.528 35.3815C99.9235 35.2653 103.311 35.5117 106.693 35.7932C107.113 35.8282 107.15 35.7946 107.15 35.3577C107.153 31.9622 107.15 28.5668 107.15 25.1699C107.15 24.7386 107.099 24.6826 106.675 24.6574C104.733 24.5384 102.791 24.376 100.846 24.3228C99.0287 24.2738 97.2085 24.3396 95.3896 24.3578C93.1465 24.3816 90.923 24.6322 88.7023 24.9291C88.2808 24.9851 88.2682 24.9725 88.2682 24.544V12.7446C88.2682 12.2951 88.2934 12.2741 88.7457 12.2713C88.8507 12.2699 88.9557 12.2713 89.0607 12.2713C97.707 12.2713 106.353 12.2713 114.999 12.2699C115.379 12.2699 115.57 12.086 115.571 11.7182V0.897505C115.57 0.52972 115.38 0.345361 115.001 0.344428ZM38.7839 33.3456C35.8421 32.5041 33.0179 31.3826 30.4402 29.7163C29.4152 29.054 28.4729 28.2657 27.4886 27.539C27.2841 27.3892 27.3023 27.2212 27.3849 27.0167C27.8624 25.8266 28.3343 24.6336 28.8117 23.4434C29.7709 21.0519 30.7328 18.6604 31.6961 16.2702C31.7774 16.0686 31.867 15.8712 31.9524 15.6724C31.9874 15.6696 32.0224 15.6682 32.0588 15.6668C34.4139 21.549 36.7705 27.4312 39.1578 33.3946C38.9562 33.3694 38.8665 33.3694 38.7839 33.3456Z" fill="#007AFF"/>
</svg>
