<svg width="100" height="100" viewBox="0 0 100 100" fill="none" xmlns="http://www.w3.org/2000/svg">
<rect width="100" height="100" rx="20" fill="#FD0936"/>
<path d="M81.7675 58.5801C81.3563 57.1164 80.7305 55.7567 79.8445 54.5298C78.6722 52.906 77.1798 51.6244 75.3713 50.7579C74.3538 50.2713 73.2973 49.8562 72.2317 49.4841C71.4602 49.2148 71.5929 49.3579 71.5734 48.5617C71.5695 48.3769 71.6254 48.278 71.8232 48.213C73.1894 47.7563 74.5061 47.1981 75.7317 46.424C77.215 45.4885 78.4406 44.3045 79.3787 42.829C80.279 41.4134 80.8164 39.8482 81.1 38.2127C81.2861 37.1419 81.3746 36.0412 81.3759 34.9535C81.3759 33.6602 81.3329 32.3552 81.0011 31.0892C80.7787 30.2344 80.5835 29.3639 80.2712 28.5403C79.6818 26.9894 78.8088 25.6051 77.6456 24.4042C76.7257 23.4518 75.6849 22.6711 74.5425 22.0166C73.0814 21.1787 71.507 20.6128 69.8794 20.2237C68.7188 19.9466 67.5322 19.7605 66.3482 19.6109C65.4387 19.4964 64.5136 19.4613 63.5964 19.4587C57.9795 19.4457 52.364 19.4522 46.7484 19.4522V19.4483H29.1849C28.6861 19.4483 28.4368 19.7037 28.4368 20.2146V44.2823C28.4368 44.6883 28.2394 44.8913 27.8448 44.8913C24.592 44.8913 21.3406 44.8913 18.0878 44.8926C17.9473 44.8926 17.8042 44.8913 17.6663 44.9147C17.6038 44.9264 17.5193 44.9862 17.5023 45.0422C17.488 45.0864 17.5479 45.1762 17.5986 45.2139C19.1365 46.3576 20.6731 47.5013 22.2162 48.6384C24.1249 50.0449 26.0297 51.4553 27.9554 52.8384C28.3275 53.1051 28.4472 53.3887 28.4459 53.835C28.4342 62.5185 28.4368 71.2021 28.4368 79.8869C28.4368 80.4984 28.4823 80.5518 28.9962 80.5518C40.2703 80.5518 51.5456 80.5518 62.8209 80.5492C63.3947 80.5492 63.9724 80.5622 64.5423 80.5075C65.7249 80.3956 66.9076 80.2668 68.0825 80.0964C68.9465 79.9728 69.8117 79.8205 70.6522 79.5942C71.5148 79.3613 72.3593 79.0477 73.1946 78.725C74.4423 78.2449 75.6068 77.5996 76.6854 76.8111C78.1439 75.7429 79.3396 74.4288 80.2699 72.8753C81.1456 71.4155 81.7584 69.8528 82.0498 68.1783C82.2398 67.0841 82.4259 65.9782 82.4779 64.8709C82.5768 62.7436 82.3478 60.6424 81.7675 58.5801ZM34.2514 28.5117H34.591C42.9154 28.5143 51.2398 28.5117 59.5642 28.5273C60.449 28.5273 61.3429 28.5833 62.2159 28.7186C63.6003 28.9346 64.9417 29.308 66.0684 30.2123C66.9714 30.937 67.5699 31.8647 67.9303 32.9641C68.5288 34.7934 68.5327 36.6787 68.3545 38.551C68.1723 40.4623 67.4437 42.1472 65.7718 43.2818C65.0497 43.7723 64.2599 44.082 63.4246 44.3357C62.2718 44.6883 61.0943 44.7559 59.9116 44.8262C59.1232 44.8743 58.3321 44.8874 57.5423 44.8887C52.0686 44.8939 46.5936 44.8913 41.1199 44.8913C40.6281 44.8913 40.6281 44.89 40.6281 44.389C40.6281 40.8657 40.6255 37.3436 40.632 33.8202C40.6333 33.5184 40.5734 33.2933 40.3054 33.1033C39.3699 32.4397 38.4513 31.7541 37.5288 31.0723C36.8328 30.5584 36.1393 30.0405 35.4458 29.5227C35.0411 29.2208 34.6365 28.9177 34.2319 28.6145C34.2384 28.5807 34.2449 28.5456 34.2514 28.5117ZM69.6152 62.378C69.5775 63.2511 69.5918 64.1358 69.4448 64.9906C69.2197 66.306 68.7682 67.5421 67.89 68.6038C66.9337 69.7592 65.7223 70.4774 64.3029 70.856C63.5482 71.0564 62.7728 71.2034 61.9973 71.301C61.2401 71.3972 60.4698 71.435 59.7061 71.4363C53.5376 71.4467 47.3691 71.4428 41.2005 71.4428C40.8189 71.4428 40.6281 71.2511 40.6281 70.8677C40.6281 66.7809 40.6255 62.6942 40.6333 58.6061C40.6333 58.29 40.5617 58.0623 40.2872 57.8658C39.0928 57.0045 37.9153 56.1223 36.7313 55.248C35.948 54.6703 35.1661 54.0913 34.3841 53.511C34.3268 53.4681 34.2787 53.4135 34.2267 53.364C34.2345 53.3367 34.2436 53.3081 34.2527 53.2807H34.6352C42.9609 53.2807 51.2867 53.2703 59.6124 53.2938C60.6559 53.2964 61.7124 53.3991 62.7389 53.5826C64.4147 53.8832 66.0008 54.44 67.2824 55.6409C68.2048 56.5049 68.8073 57.5575 69.1729 58.7636C69.5307 59.9463 69.6686 61.1498 69.6152 62.378Z" fill="black"/>
</svg>
