<svg width="121" height="121" viewBox="0 0 121 121" fill="none" xmlns="http://www.w3.org/2000/svg">
<g clip-path="url(#clip0_193_74)">
<path fill-rule="evenodd" clip-rule="evenodd" d="M28.2595 0.957275C35.6849 0.957275 41.7019 6.97435 41.7019 14.3997C41.7019 21.825 35.6849 27.8421 28.2595 27.8421C20.8342 27.8421 14.8171 21.825 14.8171 14.3997C14.8171 6.97435 20.8342 0.957275 28.2595 0.957275ZM106.14 94.0725V56.4765C106.14 41.6258 94.1059 29.6344 79.2553 29.6344H56.6379C49.3406 29.6344 43.4516 35.5661 43.4516 42.8207C43.4516 50.0753 49.3833 56.0071 56.6379 56.0071H79.7674V94.5846H41.2325V71.4978C41.2325 64.2005 35.3008 58.3115 28.0462 58.3115C20.7915 58.3115 14.8598 64.2432 14.8598 71.4978V94.1152C14.8598 108.966 26.894 121 41.7446 121H79.2979C94.1486 121 106.183 108.966 106.183 94.1152L106.14 94.0725Z" fill="url(#paint0_linear_193_74)"/>
</g>
<defs>
<linearGradient id="paint0_linear_193_74" x1="12.1713" y1="120.872" x2="92.0149" y2="14.4423" gradientUnits="userSpaceOnUse">
<stop stop-color="#0781FE"/>
<stop offset="1" stop-color="#00C7B4"/>
</linearGradient>
<clipPath id="clip0_193_74">
<rect width="120" height="120.043" fill="white" transform="translate(0.5 0.957275)"/>
</clipPath>
</defs>
</svg>
