<svg width="121" height="121" viewBox="0 0 121 121" fill="none" xmlns="http://www.w3.org/2000/svg">
<g clip-path="url(#clip0_90_1904)">
<path d="M22.8684 75.5969C23.9949 74.4734 23.4317 73.7713 22.6572 72.9287L24.1357 74.4032L22.8684 75.5969Z" fill="#386CE5"/>
<path d="M104.116 63.2393C103.905 63.9415 103.06 64.5734 102.497 65.1351C88.5563 79.1078 74.5457 93.0804 60.5351 107.053C58.6342 108.949 58.6342 108.879 56.7333 106.983C49.0591 99.3295 41.385 91.6761 33.7108 84.0228L31.6691 81.9163L24.1358 74.4034L22.6573 72.9289C20.1227 70.4714 17.5881 68.0139 15.1239 65.5564C14.4199 64.8543 13.7862 64.1521 13.1526 63.45C13.223 63.2393 13.2934 63.0989 13.3638 62.8883C17.5177 62.8883 21.6716 62.7478 25.8255 62.8883C26.8816 62.9585 27.9376 64.2925 28.8529 65.1351C30.5426 66.8203 31.0355 67.2416 32.1619 66.399L30.8946 67.5926L38.3576 75.1056L40.2585 73.2098C38.9912 74.4736 38.8504 75.1758 40.1881 76.5098C45.7501 81.8461 51.1713 87.3931 56.6629 92.8698C58.071 94.2741 59.4791 94.2975 60.8872 92.94C70.3918 83.4611 79.9669 73.9821 89.4012 64.5032C90.6685 63.2393 91.9358 62.6776 93.6959 62.7478C95.456 62.818 97.2161 62.7478 98.9059 62.818C100.596 62.818 102.567 62.3968 104.116 63.1691V63.2393Z" fill="#386CE5"/>
<path d="M116.859 25.6045C116.226 29.7471 115.451 33.8898 114.677 37.9622C114.325 39.9282 113.48 40.209 112.001 38.7345C110.804 37.4005 109.96 37.6111 108.833 38.8048L98.2723 49.3369C97.2866 50.2497 97.0754 50.9518 97.9907 51.9348L87.9932 41.9644C89.2605 43.2283 89.4717 43.0176 91.1614 41.3325C94.4704 38.1026 97.7795 34.7323 101.159 31.5025C102.356 30.3088 102.919 29.3258 101.3 27.9917C100.244 27.079 99.8212 26.3066 101.863 25.9555C106.017 25.1832 110.1 24.13 114.254 23.2874C116.859 22.7959 117.211 23.0065 116.859 25.6045Z" fill="white"/>
<path d="M86.0218 61.4838C77.5028 69.9798 68.9838 78.4757 60.5352 86.9716C59.1271 88.3759 58.071 88.0249 56.8741 86.761C52.4386 82.2673 47.8623 77.8438 43.4268 73.2799C42.3003 72.1564 41.5259 72.016 40.2586 73.2799L30.1907 83.3907L29.4866 84.0929C26.248 87.2525 23.0798 90.4122 19.9115 93.642C18.7146 94.9059 17.3769 95.5378 15.6168 95.4676C12.2374 95.4676 8.92835 95.4676 5.54891 95.4676C5.05607 95.4676 4.49283 95.1165 4 94.9761C4.21121 94.4846 4.35202 93.9229 4.70405 93.5718C7.52025 90.693 10.4069 87.8142 13.2935 85.0056C15.2648 83.0396 17.3065 81.0034 19.3483 79.0374L22.8685 75.6671L32.162 66.5393L33.4997 65.2754C35.6822 63.0286 38.0056 60.8519 40.1178 58.5348C41.4555 56.9901 42.3003 57.1306 43.638 58.6051C47.9327 63.0286 52.3682 67.3116 56.7333 71.6649C58.0945 72.9756 59.5026 72.9288 60.9576 71.5245C66.59 65.9074 72.2928 60.2902 77.9252 54.6028C79.1925 53.3858 80.4598 53.4092 81.7271 54.6731C83.1352 56.0773 84.5433 57.6221 86.0218 58.9561C87.0779 59.9391 87.0075 60.5711 86.0218 61.5541V61.4838Z" fill="white"/>
<path d="M116.859 25.6045C116.226 29.7471 115.451 33.8898 114.677 37.9622C114.325 39.9282 113.48 40.209 112.001 38.7345C110.804 37.4005 109.96 37.6111 108.833 38.8048L98.2723 49.3369C97.2866 50.2497 97.0754 50.9518 97.9907 51.9348L87.9932 41.9644C89.2605 43.2283 89.4717 43.0176 91.1614 41.3325C94.4704 38.1026 97.7795 34.7323 101.159 31.5025C102.356 30.3088 102.919 29.3258 101.3 27.9917C100.244 27.079 99.8212 26.3066 101.863 25.9555C106.017 25.1832 110.1 24.13 114.254 23.2874C116.859 22.7959 117.211 23.0065 116.859 25.6045Z" fill="white"/>
<path d="M104.116 58.1838C104.116 58.1838 103.905 58.6051 103.834 58.8158C99.8211 58.8158 95.808 58.9562 91.8653 58.7456C90.9501 58.6753 90.0348 57.7626 89.3308 57.0604C80.1077 47.8623 70.8846 38.6643 61.6616 29.4662C58.775 26.5874 58.8454 26.5874 55.8884 29.5364C46.5949 38.7345 37.3015 48.0028 28.0784 57.2711C26.9519 58.3945 25.7551 58.9562 24.2061 58.886C20.6155 58.8158 17.0248 58.886 12.8005 58.886C13.575 57.903 13.927 57.3413 14.4199 56.92C28.5713 42.7367 42.7931 28.6236 56.8741 14.4403C58.3526 12.9658 59.1974 13.2467 60.4647 14.5105C69.4062 23.498 78.418 32.4152 87.3594 41.3324L87.9931 41.9643L97.9906 51.9348L98.2722 52.2858C100.244 54.1816 102.144 56.2178 104.116 58.1838Z" fill="#386CE5"/>
</g>
<defs>
<clipPath id="clip0_90_1904">
<rect width="113" height="95" fill="white" transform="translate(4 13.4573)"/>
</clipPath>
</defs>
</svg>
