<?xml version="1.0" encoding="UTF-8"?>
<svg id="Capa_1" xmlns="http://www.w3.org/2000/svg" version="1.1" viewBox="0 0 47.16 44.69">
  <!-- Generator: Adobe Illustrator 29.5.0, SVG Export Plug-In . SVG Version: 2.1.0 Build 137)  -->
  <defs>
    <style>
      .st0 {
        fill: #ffff39;
      }
    </style>
  </defs>
  <path class="st0" d="M27.42,39.04l8.33-9.29h-6.64l-7.79,8.69c-.34.38-.79.59-1.27.59s-.93-.21-1.27-.59l-13.14-14.65c-.71-.8-.71-2.09,0-2.89l13.68-15.25h4.6l-14.98,16.69,11.11,12.38,6.48-7.22c.35-.39,1.09-.72,1.62-.72h12.95c.48,0,.81.13.91.35s-.03.55-.35.91l-9.86,10.99h-4.39.01ZM14.85,23.01c-.34-.36-.34-.96,0-1.32l14.29-15.43c.35-.38.82-.59,1.31-.59s.96.21,1.31.59l9.91,10.71c.33.36.46.69.36.91s-.44.35-.94.35h-15.02l2.75-2.97h6.53l-4.9-5.29-11.46,12.38,4.11,4.44-2.37,2.56-5.87-6.34h0Z"/>
</svg>