<svg width="121" height="121" viewBox="0 0 121 121" fill="none" xmlns="http://www.w3.org/2000/svg">
<path d="M78.0325 84.1599C77.5508 63.2455 92.524 57.7058 92.524 57.7058C93.1663 86.9699 78.0325 90.8638 78.0325 90.9441M64.4241 54.9359C63.8219 57.7058 62.4169 60.2348 60.3696 62.1617C58.3223 60.1947 56.9173 57.7058 56.3152 54.9359C55.0306 56.8628 53.3045 58.4685 51.2572 59.5925C49.2099 60.7165 46.9218 61.2785 44.6336 61.2785C36.8861 61.2785 30.3829 54.6951 30.3829 46.5059C30.3829 44.8601 30.7041 43.2142 31.2259 41.6487C31.7076 39.5211 34.6782 34.0617 34.6782 34.0617C36.5649 31.0509 37.7692 27.6388 38.1305 24.0661C41.0208 25.9127 43.6301 28.1607 45.878 30.7298C46.0788 30.8904 46.2393 31.0911 46.3598 31.2918C50.2536 30.3685 62.0556 28.2409 73.9781 31.6932C74.4196 31.4122 74.7809 31.0911 75.1422 30.7298C77.3099 28.0804 79.9593 25.8324 82.8898 24.0661C83.251 27.5987 84.4553 31.0108 86.3421 34.0617C86.3421 34.0617 89.3929 39.6014 89.7943 41.6487C90.3563 43.2544 90.5169 44.9404 90.276 46.5862C90.276 54.6549 83.9335 61.3588 76.0253 61.3588C73.7372 61.2785 71.4491 60.6362 69.4419 59.5524C67.4348 58.4685 65.7086 56.8628 64.3839 54.9359H64.4241ZM73.8978 77.0145C73.2153 76.3321 72.6935 75.5292 72.3322 74.6461C71.9709 73.7629 71.8103 72.7995 71.8505 71.8361L73.8175 75.4489L75.945 71.8361C75.8648 73.7629 75.1021 75.5694 73.8978 77.0145ZM73.8978 92.4294C73.2153 91.7469 72.6935 90.9441 72.3322 90.0609C71.9709 89.1778 71.8103 88.2144 71.8505 87.2509L73.8175 90.7835L75.945 87.2509C75.945 87.2509 75.8648 90.1412 73.8978 92.4294ZM68.5588 79.5034L70.5258 83.1162L72.6533 79.5034C72.4526 81.3901 71.7702 83.1965 70.6061 84.6818C69.8835 84.0395 69.3616 83.1965 69.0003 82.3134C68.639 81.4302 68.4785 80.4668 68.5588 79.5034ZM67.3946 92.4294C66.7122 91.7469 66.1903 90.9441 65.829 90.0609C65.4678 89.1778 65.3072 88.2144 65.3473 87.2509L67.3143 90.7835L69.4419 87.2509C69.3215 89.1377 68.5989 90.9842 67.3946 92.4294ZM65.3473 71.7558L67.3143 75.3687L69.4419 71.7558C69.2412 73.6425 68.5588 75.4489 67.3946 76.9342C66.6721 76.2919 66.1502 75.4489 65.7889 74.5658C65.4276 73.6827 65.267 72.7192 65.3473 71.7558ZM62.2965 79.5034L64.2635 83.1162L66.4312 79.5034C66.2305 81.3901 65.548 83.1965 64.3839 84.6818C63.6613 84.0395 63.1395 83.1965 62.7782 82.3134C62.4169 81.4302 62.2563 80.4668 62.3366 79.5034M60.8513 92.4294C60.1689 91.7469 59.647 90.9441 59.2858 90.0609C58.9245 89.1778 58.7639 88.2144 58.8041 87.2509L60.771 90.7835L62.8986 87.2509C62.7381 89.1377 62.0155 90.9441 60.8513 92.4294ZM58.7639 71.7558L60.7309 75.3687L62.8585 71.7558C62.6979 73.6425 61.9753 75.4489 60.8112 76.9342C60.0886 76.2919 59.5668 75.4489 59.2055 74.5658C58.8442 73.6827 58.6836 72.7192 58.7639 71.7558ZM55.6328 79.5034L57.5998 83.1162L59.7273 79.5034C59.5668 81.3901 58.8442 83.1965 57.68 84.6818C56.9575 84.0395 56.4356 83.1965 56.0743 82.3134C55.7131 81.4302 55.5525 80.4668 55.6328 79.5034ZM54.3081 92.4294C53.6256 91.7469 53.1038 90.9441 52.7425 90.0609C52.3812 89.1778 52.2206 88.2144 52.2608 87.2509L54.2278 90.7835L56.3553 87.2509C56.1948 89.1377 55.4722 90.9441 54.3081 92.4294ZM52.2608 71.7558L54.2278 75.3687L56.3553 71.7558C56.1948 73.6425 55.4722 75.4489 54.3081 76.9342C53.5855 76.2919 53.0636 75.4489 52.7023 74.5658C52.341 73.6827 52.1805 72.7192 52.2608 71.7558ZM49.0493 79.5034L51.0163 83.1162L53.1439 79.5034C52.9432 81.3901 52.2608 83.1965 51.0966 84.6818C50.3741 84.0395 49.8522 83.1965 49.4909 82.3134C49.1296 81.4302 48.9691 80.4668 49.0493 79.5034ZM45.6773 71.7558L47.6443 75.3687L49.7719 71.7558C49.6113 73.6425 48.8888 75.4489 47.7246 76.9342C47.0422 76.2518 46.5203 75.4489 46.1591 74.5658C45.7978 73.6827 45.6372 72.7192 45.6372 71.7558H45.6773ZM47.8049 92.4294C47.1225 91.7469 46.6006 90.9441 46.2393 90.0609C45.8781 89.1778 45.7175 88.2144 45.7576 87.2509L47.7246 90.7835L49.8522 87.2509C49.6916 89.1377 48.9691 90.9441 47.8049 92.4294ZM42.9476 90.9441C42.9476 90.9441 27.8539 86.9699 28.4561 57.7058C28.4561 57.7058 43.4695 63.2455 42.9476 84.1599M90.1556 31.3721C84.8166 22.9822 88.1083 17.2017 88.1083 17.2017C82.2475 17.3622 76.8282 21.7378 73.1752 25.5915C69.0003 24.8288 64.7452 24.4675 60.4901 24.4274C56.2349 24.4274 51.9798 24.7887 47.8049 25.5915C44.2322 21.8181 38.7728 17.2819 32.8316 17.2017C32.8316 17.2017 36.1233 23.0625 30.7843 31.3721C23.5988 42.6924 16.0118 81.5908 40.1778 94.7978C41.8236 95.9619 44.3125 96.8451 47.2831 97.6078C47.4436 100.297 48.5676 102.826 50.4945 104.713C51.9396 102.987 52.9432 100.9 53.3848 98.6917C55.7532 99.0128 58.1618 99.1332 60.5703 99.0931C62.5373 99.0931 64.6248 98.9325 66.4312 98.7719C66.7925 101.02 67.8763 103.107 69.482 104.713C71.0476 102.746 72.0913 100.418 72.5329 97.9691C76.0655 97.2064 78.9558 96.1627 80.7622 94.9182C105.008 81.7112 97.4215 42.8128 90.1556 31.4524" fill="white"/>
<path d="M44.0716 49.6772C44.6738 49.6772 45.2759 49.3962 45.7175 48.9547C46.159 48.5131 46.3999 47.9109 46.3999 47.3088C46.3999 46.6264 46.0788 45.9841 45.5569 45.5024L44.9146 45.1009C44.6336 45.0207 44.3526 44.9404 44.0716 44.9404C43.4695 44.9404 42.8673 45.2214 42.4659 45.6629C42.0243 46.1045 41.8236 46.7067 41.8236 47.3088C41.8236 47.9109 42.0645 48.5131 42.4659 48.9547C42.9075 49.3962 43.4695 49.6772 44.0716 49.6772Z" fill="white"/>
<path d="M44.1118 53.3302C42.5462 53.3302 41.0609 52.6478 39.9771 51.5238C38.8932 50.3998 38.3312 48.8744 38.3312 47.3088C38.3312 46.3855 38.5319 45.4221 38.9735 44.5791C39.3749 43.7361 39.9771 43.0135 40.7398 42.4114L35.5613 39.1197C33.9958 41.2071 33.1528 43.7762 33.1528 46.4257C33.1528 53.0091 38.3312 58.3882 44.6738 58.3882C46.8816 58.3882 49.0493 57.7058 50.8959 56.5015C52.7425 55.2972 54.2278 53.6112 55.1511 51.6041L49.812 48.2321C49.6515 49.6371 48.9691 50.9217 47.9253 51.8449C46.8816 52.7682 45.5168 53.2901 44.1118 53.3302Z" fill="white"/>
<path d="M77.35 49.6772C77.9522 49.6772 78.5543 49.3962 78.9558 48.9547C79.3973 48.5131 79.598 47.9109 79.598 47.3088C79.598 46.7067 79.3572 46.1045 78.9558 45.6629C78.5142 45.2214 77.9522 44.9404 77.35 44.9404C77.069 44.9404 76.788 45.0207 76.507 45.1009L75.8648 45.5024C75.5035 45.8235 75.2626 46.2249 75.1422 46.7067C75.0218 47.1884 75.0218 47.6701 75.1823 48.1117C75.3429 48.5532 75.6239 48.9547 76.0253 49.2357C76.4268 49.5167 76.8683 49.6772 77.35 49.7174V49.6772Z" fill="white"/>
<path d="M85.9406 39.2401L80.7622 42.5318C81.5249 43.0938 82.127 43.8164 82.5285 44.6594C82.9299 45.5024 83.1708 46.4257 83.1306 47.3891C83.2109 48.8744 82.689 50.3195 81.7256 51.4435C80.7622 52.5675 79.3572 53.2499 77.8719 53.4105C76.3866 53.5309 74.9013 53.0894 73.7372 52.1661C72.5731 51.2428 71.8103 49.8779 71.6498 48.3927L66.3108 51.7647C67.234 53.7718 68.7193 55.4578 70.5659 56.6219C72.4125 57.8262 74.5802 58.4685 76.7479 58.5087C83.0905 58.5087 88.2689 53.1697 88.2689 46.5461C88.2689 43.8967 87.466 41.3275 85.9005 39.1999" fill="white"/>
</svg>
