<svg width="100" height="100" viewBox="0 0 100 100" fill="none" xmlns="http://www.w3.org/2000/svg">
<rect width="100" height="100" rx="20" fill="black"/>
<g clip-path="url(#clip0_634_22)">
<path d="M79.5 37.3229V52.0118L71.1367 50.4934L66.6527 49.6789H66.6505L51.3992 46.9057C58.3494 45.7637 65.2845 44.6238 71.1367 43.6625V37.3229C71.1367 28.761 64.1136 21.794 55.4801 21.794H44.522C35.8885 21.794 28.8633 28.761 28.8633 37.3229V42.8097L20.5 41.2913V37.3229C20.5 24.1865 31.2758 13.5 44.522 13.5H55.4801C68.7242 13.5 79.5 24.1865 79.5 37.3229Z" fill="white"/>
<path d="M71.1367 62.6771C71.1367 71.2391 64.1136 78.206 55.4801 78.206H44.522C35.8885 78.206 28.8633 71.2391 28.8633 62.6771V55.8888C34.0143 55.0424 40.3039 54.0088 46.8209 52.937L32.0971 50.0766L28.8633 49.4492L20.5 47.8245V62.6771C20.5 75.8135 31.2758 86.5 44.522 86.5H55.4801C68.7242 86.5 79.5 75.8135 79.5 62.6771V59.2851L71.1367 57.6603V62.6771Z" fill="white"/>
</g>
<defs>
<clipPath id="clip0_634_22">
<rect width="59" height="73" fill="white" transform="translate(20.5 13.5)"/>
</clipPath>
</defs>
</svg>
