<svg width="100" height="100" viewBox="0 0 100 100" fill="none" xmlns="http://www.w3.org/2000/svg">
<rect width="100" height="100" rx="20" fill="#07080A"/>
<path d="M48.3125 69.0913C48.2477 68.5414 48.022 68.0935 47.3664 68.0659C47.2751 67.9735 47.1575 67.9591 47.0362 67.9603C45.9052 67.9675 44.7754 67.9759 43.6443 67.9843C43.4438 67.9843 43.2445 67.9843 43.044 67.9843C42.1999 67.9843 41.3559 67.9831 40.5118 67.9819C39.9535 67.9819 39.3952 67.9819 38.8369 67.9819C38.2377 67.9819 37.6374 67.9819 37.0383 67.9819C36.085 67.9819 35.1328 67.9843 34.1795 67.9855C33.4639 67.9855 32.7483 67.9855 32.0315 67.9831C30.5511 67.9831 29.0695 67.9843 27.5891 67.9855C27.0752 67.9843 26.5613 67.9831 26.0462 67.9819C25.602 67.9831 25.1577 67.9843 24.7123 67.9855C23.6353 67.9675 22.5571 67.9507 21.4801 67.9327C21.4777 67.4188 21.4753 66.9061 21.4729 66.3922C21.4729 65.8339 21.4729 65.2744 21.4729 64.7161C21.4729 64.3571 21.4729 63.9981 21.4729 63.6391C21.4729 63.0796 21.4729 62.5213 21.4729 61.9618C21.4729 61.1633 21.4729 60.3661 21.4729 59.5676C21.4729 58.8496 21.4729 58.1304 21.4729 57.4124V55.3773C21.4729 54.7782 21.4729 54.1803 21.4729 53.5811C21.5737 53.3434 21.2952 52.9796 21.7166 52.8475C22.3542 52.8475 22.9917 52.8475 23.6293 52.8475C24.1095 52.8475 24.591 52.8475 25.0713 52.8475C25.4291 52.8475 25.7881 52.8475 26.1459 52.8475C26.6658 52.8475 27.1868 52.8475 27.7067 52.8463C28.3059 52.8463 28.905 52.8463 29.5041 52.8463C29.7839 52.8463 30.0636 52.8463 30.3434 52.8463C30.7432 52.8463 31.1418 52.8463 31.5416 52.8463C31.9006 52.8463 32.2608 52.8463 32.6198 52.8463C33.219 52.8463 33.8181 52.8463 34.4172 52.8463C35.0944 52.8463 35.7728 52.8463 36.45 52.8463C37.0107 52.8463 37.5714 52.8463 38.1309 52.8463C38.5691 52.8463 39.0074 52.8463 39.4444 52.8463C39.9247 52.8463 40.4061 52.8463 40.8864 52.8463C41.4123 52.8259 41.9478 52.9772 42.4617 52.7539C42.8423 52.7215 43.0728 52.5161 43.1557 52.1451C43.2721 51.6709 43.325 51.1918 43.2649 50.7043C43.2649 50.2649 43.2649 49.8267 43.2649 49.3872C43.2709 49.1711 43.2805 48.9562 43.2817 48.7401C43.2841 47.4625 43.1701 47.3161 41.9478 47.0267C41.5708 47.0195 41.1926 47.0039 40.8156 47.0051C36.7994 47.0111 32.7831 47.0207 28.7681 47.0291C26.5493 47.0207 24.3305 46.9979 22.1116 47.0183C21.6206 47.0231 21.414 46.8862 21.4717 46.3976C21.4717 45.7984 21.4717 45.2005 21.4717 44.6014V42.8064C21.4717 42.3273 21.4717 41.8482 21.4717 41.3692C21.4717 40.77 21.4717 40.1721 21.4717 39.573C21.4717 38.9739 21.4717 38.3747 21.4717 37.7756C21.4717 36.9771 21.4717 36.1799 21.4717 35.3815V33.1062C21.4981 32.3826 21.8755 32.0208 22.6039 32.0208C29.9724 32.022 37.3397 32.0232 44.7081 32.0232C44.9471 32.0232 45.186 32.0076 45.4249 31.998C45.6783 32.0064 45.9388 32.0796 46.1729 31.9151C46.4683 31.9115 46.718 31.8215 46.8693 31.5465C47.0206 31.4325 47.0938 31.2692 47.1143 31.0903C47.2667 29.76 47.2643 28.4284 47.1275 27.0957C47.0782 26.2756 46.712 25.9178 45.9052 25.9046C45.7083 25.901 45.5114 25.9094 45.3145 25.9118C45.1031 25.7389 44.8534 25.8218 44.6229 25.8218C35.5843 25.8182 26.5469 25.8218 17.5083 25.8194C16.9488 25.8194 16.3929 25.8194 15.8454 25.9479C15.3327 26.1147 15.0193 26.4365 15.0145 27.0032C15.0145 27.7621 15.0145 28.5197 15.0133 29.2785C15.0133 29.9977 15.0133 30.7157 15.0133 31.4349C15.0133 32.1133 15.0133 32.7916 15.0133 33.47C15.0133 34.0679 15.0133 34.6671 15.0133 35.265C15.0133 35.7441 15.0133 36.2231 15.0133 36.7022C15.0133 37.2209 15.0133 37.7408 15.0133 38.2595C15.0133 38.8982 15.0133 39.5358 15.0133 40.1745C15.0133 40.6932 15.0133 41.2131 15.0133 41.7318C15.0133 42.0908 15.0133 42.4498 15.0133 42.8088C15.0133 43.2878 15.0133 43.7669 15.0133 44.2472C15.0133 44.8859 15.0133 45.5235 15.0133 46.1622C15.0133 46.5608 15.0133 46.9607 15.0133 47.3593C15.0133 47.998 15.0133 48.6368 15.0133 49.2743C15.0133 49.9131 15.0133 50.5518 15.0133 51.1894C15.0133 51.9086 15.0133 52.6266 15.0133 53.3458V55.7399C15.0133 56.3391 15.0133 56.937 15.0133 57.5361C15.0133 57.8555 15.0133 58.1737 15.0133 58.493C15.0133 59.0526 15.0133 59.6109 15.0133 60.1704V62.3244C15.0133 62.843 15.0133 63.3629 15.0133 63.8816C15.0133 64.2802 15.0133 64.6801 15.0133 65.0787C15.0133 65.6778 15.0133 66.2757 15.0133 66.8749C15.0133 67.4332 15.0133 67.9927 15.0133 68.551C15.0133 68.8704 15.0133 69.1898 15.0133 69.5091C15.0133 70.1071 15.0133 70.7062 15.0133 71.3041C15.0085 71.7772 14.9989 72.2502 15.0001 72.7233C15.0037 73.6658 15.3807 74.0452 16.322 74.0633C16.5129 74.2253 16.7423 74.1569 16.9548 74.1569C20.5424 74.1605 24.13 74.1605 27.7175 74.1569C27.9108 74.1569 28.1041 74.1305 28.2963 74.1149C28.3107 74.1149 28.3251 74.1149 28.3395 74.1149C29.8019 74.2145 31.2655 74.1485 32.7279 74.1533C34.5589 74.1593 36.3899 74.1317 38.2221 74.1185C38.9281 74.1749 39.6353 74.1773 40.3413 74.1365C40.4278 74.1401 40.5166 74.1365 40.6127 74.1221C40.6151 74.1221 40.6163 74.1221 40.6187 74.1221C42.6778 74.1329 44.7357 74.1437 46.7949 74.1497C46.8657 74.1497 46.9366 74.0921 47.0062 74.0609C47.1239 74.056 47.2415 74.0512 47.3592 74.0464C47.9019 73.9576 48.2213 73.6478 48.3005 73.0991C48.3053 72.5396 48.3089 71.9813 48.3137 71.4218C48.3137 71.0232 48.3137 70.6233 48.3137 70.2247C48.3161 69.8465 48.3557 69.4647 48.3137 69.0925L48.3125 69.0913ZM46.6196 29.5859C46.736 29.6975 46.8537 29.8104 46.9702 29.922C46.9702 29.9268 46.9702 29.9305 46.9702 29.9353C46.8525 29.8176 46.736 29.7023 46.6196 29.5859ZM19.493 74.0476C19.5086 74.0296 19.5218 74.0116 19.5338 73.9948C19.5422 74.0128 19.553 74.0296 19.5614 74.0476C19.5386 74.0476 19.5158 74.0476 19.493 74.0476ZM28.8702 74.05C28.8774 74.038 28.8846 74.026 28.8906 74.014C28.8954 74.026 28.9014 74.0368 28.9062 74.0488C28.8942 74.0488 28.8822 74.0488 28.8702 74.0488V74.05ZM84.9604 61.7324C84.9616 61.6892 84.9628 61.646 84.9652 61.6028C84.9772 61.5247 84.988 61.4467 85 61.3686C84.9892 61.1273 84.9784 60.886 84.9676 60.6446C84.9784 60.2448 84.988 59.8438 84.9988 59.444C84.946 59.1666 85.0444 58.8676 84.8763 58.6071C84.8187 57.6958 84.635 56.8145 84.2676 55.9753C84.2448 55.8792 84.2316 55.7795 84.1968 55.6895C83.1174 52.8679 81.2047 50.7572 78.6365 49.2119C78.203 48.9514 77.754 48.7148 77.2629 48.4399C77.6027 48.2082 77.8765 48.0209 78.1502 47.8348C78.6941 47.555 79.1864 47.2044 79.6138 46.7662C79.9152 46.562 80.2166 46.3567 80.4123 46.0362C80.6068 45.9461 80.7016 45.7672 80.8085 45.5979C81.0726 45.2641 81.422 44.9976 81.5949 44.593C81.9263 44.1595 82.2037 43.6985 82.3657 43.1738C82.5987 42.8472 82.6911 42.4642 82.8028 42.0884C82.8856 41.7678 82.9685 41.4472 83.0513 41.1278C83.115 40.5671 83.3647 40.0328 83.2951 39.4529C83.3131 38.8946 83.498 38.3387 83.3203 37.778C83.3071 37.3602 83.3599 36.9363 83.2554 36.5269C83.253 36.4633 83.229 36.396 83.1942 36.3324C83.163 35.5832 83.0117 34.8616 82.7187 34.17C82.7079 34.092 82.7103 34.0079 82.6839 33.9359C81.2911 30.1178 78.562 27.6732 74.804 26.2864C73.9815 25.8614 73.0714 25.7485 72.1841 25.5588C71.7531 25.4003 71.3088 25.3271 70.8502 25.3379C70.4732 25.1434 70.0157 25.3391 69.6495 25.0906H69.2905C69.2269 25.1746 69.0888 25.129 69.03 25.2226C68.9207 25.2154 68.8114 25.2094 68.7022 25.2022C68.7142 25.1698 68.7106 25.1326 68.6914 25.0918H67.0141C67.002 25.0918 66.9888 25.1038 66.9756 25.1266C66.9708 25.1362 66.9696 25.1446 66.972 25.1542C66.9684 25.1542 66.966 25.1542 66.9624 25.1542C66.7415 25.123 66.5074 25.2214 66.2949 25.0918H65.9359C65.9335 25.1266 65.9311 25.1614 65.9287 25.1962C65.4916 25.2491 65.0558 25.3007 64.6187 25.3535C63.968 25.4015 63.3328 25.5336 62.7073 25.7161C62.3063 25.8326 61.9052 25.9479 61.503 26.0643C61.198 26.1123 60.9135 26.2156 60.6457 26.3693C60.3084 26.4521 59.9974 26.595 59.7044 26.7775C59.0885 26.9888 58.541 27.3238 58.0223 27.7116C57.5324 27.9638 57.0966 28.2891 56.7052 28.6758C56.357 28.9303 55.998 29.1716 55.7554 29.5414C55.3508 29.8212 55.0819 30.2222 54.7973 30.6088C54.5956 30.8117 54.4023 31.0219 54.3062 31.2992C53.9905 31.6582 53.7491 32.0616 53.5918 32.5143C53.3241 32.8661 53.1848 33.2743 53.0828 33.6969C52.881 34.0283 52.7934 34.3945 52.7502 34.7751C52.5761 35.1161 52.5052 35.4799 52.5112 35.8605C52.3371 36.1223 52.4104 36.4176 52.3948 36.701C52.3828 36.7334 52.372 36.7658 52.3636 36.797C52.2087 37.3181 52.2963 37.8524 52.2963 38.3831C52.2963 38.6245 52.2963 38.867 52.2975 39.1083C52.2975 39.1131 52.2975 39.1179 52.2975 39.1227C52.2927 39.1624 52.2891 39.202 52.2891 39.2392C52.2771 39.519 52.3191 39.7915 52.4056 40.0593C52.3564 40.3534 52.4908 40.62 52.5329 40.9009C52.6433 41.6982 52.8894 42.4534 53.2508 43.1726C53.2629 43.211 53.2701 43.2506 53.2869 43.2854C54.287 45.4478 55.9343 46.9895 57.9598 48.1757C58.0943 48.255 58.4785 48.2082 58.2744 48.578C57.937 48.62 57.6825 48.8253 57.416 49.0078C56.8901 49.2095 56.429 49.5193 55.986 49.8615C55.4937 50.1208 55.0783 50.4822 54.676 50.8592C54.3831 51.0357 54.1513 51.2759 53.9556 51.552C53.6915 51.7381 53.4586 51.9518 53.3265 52.2556C53.0287 52.4873 52.8306 52.7995 52.6409 53.1165C52.4464 53.3698 52.2387 53.6159 52.151 53.9341C51.9253 54.2235 51.7608 54.5441 51.6672 54.8995C51.4006 55.2585 51.313 55.6847 51.2037 56.1037C51.0548 56.3991 50.9504 56.7077 50.954 57.0438C50.7895 57.4317 50.709 57.8363 50.721 58.2577C50.5241 58.72 50.619 59.2074 50.5974 59.6841C50.565 59.7249 50.5554 59.7693 50.5698 59.8174C50.3969 60.7035 50.5842 61.5763 50.7102 62.4504C50.6994 62.7782 50.7319 63.1 50.8519 63.4086C50.9516 64.1554 51.1533 64.8734 51.4547 65.565C52.8678 69.1741 55.4961 71.5767 58.978 73.1339C59.7705 73.5734 60.6361 73.8135 61.503 74.0476C61.8452 74.2097 62.2018 74.3094 62.5848 74.3022C63.1647 74.5027 63.7699 74.5639 64.3738 74.6372C64.7388 74.6552 65.087 74.8221 65.4604 74.7572C65.7558 74.7873 66.0511 74.8329 66.3477 74.8449C67.3743 74.8845 68.402 74.995 69.4238 74.786C69.5799 74.7812 69.7348 74.7752 69.8909 74.7704C70.508 74.8017 71.1119 74.7236 71.7038 74.5471C71.944 74.5327 72.1973 74.5987 72.4134 74.4319C72.7929 74.4403 73.1506 74.3526 73.4964 74.2025C73.9527 74.1473 74.4005 74.056 74.8112 73.8351C75.163 73.7859 75.4991 73.6898 75.7933 73.4809C76.1331 73.4293 76.4357 73.2852 76.7226 73.1015C77.2521 72.8386 77.8416 72.6861 78.2931 72.2731C78.8214 72.0281 79.2992 71.7099 79.7219 71.3089C80.0917 71.0832 80.4339 70.8251 80.7052 70.4829C81.0246 70.2415 81.2996 69.9558 81.5493 69.6472C81.6441 69.4407 81.9227 69.3903 81.9743 69.1477C82.2193 68.898 82.5206 68.6915 82.5987 68.3169C82.786 68.144 82.9601 67.9603 83.0549 67.7165C83.3131 67.39 83.5028 67.0262 83.6493 66.6383C83.8101 66.3742 83.9722 66.1113 84.0215 65.7979C84.1944 65.4977 84.3204 65.1807 84.3733 64.8385C84.5377 64.3727 84.6938 63.9044 84.7335 63.4062C84.7791 63.2056 84.8859 63.0171 84.8439 62.801C84.8547 62.6485 84.8667 62.4961 84.8775 62.3448C85.0168 62.1599 84.9772 61.9474 84.9688 61.7408L84.9604 61.7324ZM78.1682 57.1735C78.1682 57.1735 78.173 57.1759 78.1754 57.1771C78.1466 57.1951 78.1166 57.2191 78.0866 57.2504C78.1202 57.8567 78.2583 58.445 78.4072 59.0297C78.43 59.0862 78.46 59.1366 78.4948 59.1858C78.191 59.9038 78.2427 60.6254 78.508 61.3506C78.5056 61.3698 78.508 61.3866 78.5068 61.4047C78.4744 61.3866 78.442 61.3698 78.406 61.3566C78.1442 61.8189 78.1094 62.3376 78.0374 62.8478C78.0422 62.8863 78.0506 62.9235 78.0614 62.9583C77.7504 63.1588 77.6711 63.453 77.7468 63.8096C77.4418 64.0281 77.2197 64.2898 77.2629 64.6969C77.2677 64.7017 77.2737 64.7077 77.2785 64.7125C77.0612 64.7269 76.9736 64.8277 77.0648 65.0475C76.6026 65.2048 76.3504 65.5397 76.246 65.9984C76.2388 65.996 76.2316 65.9924 76.2244 65.99C75.8029 66.1533 75.4595 66.397 75.2986 66.8365C75.283 66.8329 75.2674 66.8293 75.2518 66.8256C74.6935 67.0514 74.1712 67.3299 73.787 67.8114C73.2035 67.7754 72.7568 68.1224 72.2778 68.3745C72.2658 68.3973 72.255 68.4189 72.2465 68.4405C71.8359 68.3241 71.4805 68.4549 71.1551 68.7095C71.1515 68.7215 71.1491 68.7323 71.1455 68.7443C70.8166 68.5642 70.5296 68.6447 70.2715 68.9064C70.2426 68.8776 70.2138 68.8488 70.185 68.82C69.844 68.7263 69.5258 68.8788 69.1981 68.916C69.156 68.9316 69.1128 68.9436 69.0696 68.9532C68.9447 68.862 68.7874 68.8488 68.6338 68.8452C67.8977 68.826 67.1605 68.8236 66.4245 68.8464C66.2696 68.8512 66.1172 68.874 65.9935 68.9712C65.9659 68.9436 65.9383 68.916 65.9094 68.8896C65.3319 68.6471 64.716 68.6399 64.106 68.5894C64.052 68.5954 64.0064 68.6074 63.9704 68.6254C63.4457 68.1548 62.8009 68.0155 62.125 67.9567C62.1274 67.9387 62.131 67.9195 62.1358 67.9002C62.0421 67.6457 61.7888 67.5917 61.5883 67.4752C60.067 66.5939 58.7823 65.4809 57.9971 63.8672C57.9034 63.6763 57.8338 63.4566 57.6045 63.3665C57.5852 63.3701 57.5672 63.3713 57.5492 63.3725C57.6129 62.7962 57.5048 62.2715 57.0762 61.8453C57.1146 61.8201 57.1434 61.7733 57.1626 61.7C57.1002 61.0721 57.1626 60.4369 57.0521 59.8114C56.9933 59.7934 56.9381 59.7681 56.8853 59.7417C56.8985 59.7261 56.9129 59.7081 56.9261 59.6877C57.201 59.3287 57.1674 58.9085 57.1626 58.4942C57.1038 58.4786 57.0473 58.4582 56.9933 58.4354C57.0089 58.4162 57.0257 58.3934 57.0413 58.3706C57.2371 58.2049 57.3355 58.0188 57.1698 57.7786C57.1926 57.7702 57.2154 57.7606 57.2395 57.7474C57.4099 57.2876 57.7473 56.8854 57.7197 56.3583C57.7077 56.3475 57.6969 56.3354 57.6849 56.3234C57.9695 56.1998 58.1279 56.0077 58.0595 55.6943C58.3933 55.5106 58.6142 55.2525 58.637 54.8658C59.0909 54.5909 59.5555 54.3255 59.6768 53.7504C59.6864 53.7504 59.6948 53.754 59.7044 53.754C60.2363 53.5271 60.7742 53.311 61.0804 52.7707C61.4658 52.8091 61.772 52.6962 61.9485 52.336C61.9665 52.3396 61.9845 52.3432 62.0037 52.3444C62.1706 52.3108 62.3567 52.3072 62.4443 52.1487C62.4683 52.1523 62.4924 52.1547 62.5188 52.1559C62.9018 52.0971 63.2944 52.0647 63.5694 51.7357C63.5694 51.7165 63.567 51.6997 63.5646 51.6817C63.7447 51.8113 63.8947 51.7513 64.0304 51.5976C64.0316 51.5832 64.0304 51.57 64.0316 51.5556C64.1577 51.6349 64.2681 51.6565 64.345 51.5568C64.3762 51.564 64.4086 51.5688 64.4422 51.5724C64.7484 51.5844 65.0534 51.5952 65.3091 51.3803C65.3199 51.3503 65.3271 51.3227 65.3331 51.2951C65.3331 51.2951 65.3343 51.2963 65.3355 51.2975C65.6705 51.5424 65.9731 51.5136 66.2456 51.235C66.3141 51.2759 66.3885 51.3095 66.4738 51.3275C67.2422 51.3803 68.0118 51.4115 68.7814 51.3047C68.8211 51.235 68.8511 51.1786 68.8667 51.1318C68.8703 51.1318 68.8739 51.1318 68.8775 51.1318C68.8907 51.1294 68.9075 51.1558 68.9231 51.169C68.9651 51.169 69.0084 51.169 69.0504 51.1702C69.6471 51.2458 70.2438 51.3227 70.8406 51.3983C71.525 51.5904 72.2093 51.7837 72.8937 51.9758C72.9357 52.0203 72.9778 52.0635 73.0198 52.1067C73.1434 52.2448 73.3079 52.3156 73.47 52.3937C75.0093 53.1345 76.3204 54.1442 77.2509 55.603C77.3578 55.7699 77.4418 55.956 77.6219 56.0653C77.6351 56.0701 77.6471 56.0761 77.6603 56.0821C77.6159 56.536 77.8308 56.8818 78.1706 57.1759L78.1682 57.1735ZM59.3418 35.1798C59.3418 35.1798 59.349 35.1798 59.3538 35.1798C59.714 34.8184 60.0874 34.4666 60.2111 33.9419C60.2051 33.9359 60.1991 33.9299 60.1931 33.9239C60.5713 33.7221 60.9387 33.5084 61.0948 33.081C61.1164 33.081 61.1368 33.081 61.1596 33.0798C61.5871 32.8541 62.0481 32.6716 62.2954 32.2189C62.3195 32.2237 62.3447 32.2273 62.3711 32.2285C62.9162 32.0256 63.4973 31.8983 63.9464 31.4913C63.9476 31.4793 63.9476 31.4685 63.9488 31.4565C64.4146 31.5646 64.8336 31.4397 65.2275 31.1803C65.2395 31.1491 65.2455 31.1191 65.2491 31.0891C65.5757 31.2764 65.8806 31.3232 66.1304 31.0026C66.2072 31.0483 66.2913 31.0843 66.3873 31.1011C67.1341 31.1731 67.8845 31.1323 68.6338 31.1275C68.7886 31.1275 68.9483 31.1167 69.0756 31.0231C69.12 31.0363 69.1644 31.0495 69.2077 31.0639C69.4982 31.1167 69.7792 31.2716 70.0854 31.1323C70.101 31.1011 70.1118 31.0723 70.119 31.0447C70.1214 31.0471 70.1238 31.0495 70.1262 31.0531C70.6028 31.4013 71.1263 31.555 71.7087 31.4781C71.7123 31.4853 71.7171 31.4925 71.7207 31.4997C71.8251 31.6582 71.986 31.7363 72.1553 31.7999C73.1398 32.1709 73.9671 32.7904 74.7595 33.4604C74.9012 33.5805 75.0249 33.7282 75.2182 33.7666C75.1846 33.8722 75.2146 33.9743 75.283 34.0511C75.893 34.7355 76.2039 35.5916 76.635 36.3792C76.6542 36.3936 76.6722 36.4092 76.6902 36.4248C76.5461 36.8787 76.6554 37.2821 76.97 37.6447C76.9267 37.6591 76.8883 37.7023 76.8559 37.766C76.6998 38.2354 76.9532 38.6905 76.9111 39.1564C76.9195 39.3965 76.9291 39.6366 76.8871 39.8743C76.8835 39.9344 76.8871 39.992 76.9015 40.0508C76.9075 40.0653 76.9147 40.0797 76.9219 40.0941C76.6038 40.3822 76.6206 40.7893 76.5761 41.1735C76.5773 41.2107 76.5821 41.2467 76.5882 41.2815C76.3108 41.4544 76.2676 41.727 76.342 42.0524C76.3372 42.0524 76.3324 42.05 76.3276 42.0488C75.9794 42.2745 75.7033 42.5458 75.7417 43.0069C75.1702 43.259 74.7667 43.6829 74.4762 44.2208C74.457 44.2123 74.4378 44.2039 74.4161 44.1979C73.9575 44.4273 73.4772 44.6254 73.1639 45.06C73.1386 45.0492 73.1134 45.0384 73.087 45.03C72.698 45.1345 72.285 45.1945 72.0436 45.5799C72.0364 45.5895 72.0316 45.5979 72.0256 45.6075C72.004 45.5691 71.9824 45.5319 71.962 45.4923C71.4133 45.5979 70.8214 45.5775 70.3903 46.0205C70.3555 45.9929 70.3195 45.9665 70.2823 45.9413C70.0001 45.8861 69.7192 45.832 69.5403 46.1358C69.5222 46.1166 69.503 46.0986 69.485 46.0794C69.3121 46.0073 69.1356 46.0157 68.9567 46.0554C68.8031 46.101 68.6458 46.1118 68.4885 46.1334C68.2507 46.1658 67.9338 46.0566 67.7345 46.1706C67.1785 46.1646 66.6226 46.1598 66.0655 46.1538C65.9923 46.1166 65.913 46.0878 65.8422 46.0926C65.2863 45.9653 64.7016 45.9929 64.1625 45.7816C63.3977 45.4466 62.586 45.2161 61.8644 44.7827C61.8392 44.7442 61.8176 44.7034 61.7984 44.6602C61.3721 44.1595 60.8078 43.8101 60.3528 43.3371C60.0226 42.9949 59.8413 42.5266 59.4199 42.2685C59.3946 42.2601 59.3706 42.2505 59.3478 42.2397C59.3142 41.7198 59.1965 41.2359 58.7571 40.8877C58.7475 40.8817 58.7379 40.8757 58.7283 40.8709C58.7571 40.8517 58.7859 40.8277 58.8183 40.7941C58.8159 40.2069 58.7739 39.6246 58.6142 39.0555C58.595 38.9991 58.5686 38.9474 58.5362 38.8994C58.7499 38.4732 58.7415 38.0085 58.7415 37.5463C58.7247 37.4742 58.6959 37.4106 58.6586 37.3506C58.9504 36.9675 59.0032 36.5065 59.0537 36.0454C59.0296 36.0214 59.0068 35.9974 58.9828 35.9734C59.2362 35.7645 59.4859 35.5556 59.343 35.1786L59.3418 35.1798Z" fill="url(#paint0_linear_634_29)"/>
<defs>
<linearGradient id="paint0_linear_634_29" x1="16.3388" y1="74.9698" x2="76.0731" y2="24.8456" gradientUnits="userSpaceOnUse">
<stop stop-color="#E990D0"/>
<stop offset="1" stop-color="#39D1EE"/>
</linearGradient>
</defs>
</svg>
