<svg width="121" height="121" viewBox="0 0 121 121" fill="none" xmlns="http://www.w3.org/2000/svg">
<path d="M119.372 51.6734H106.107V70.4003C106.107 76.4197 101.33 81.3403 95.3742 81.5473H94.992V51.6734L83.1603 51.8008C83.1443 51.3389 83.1443 50.495 83.1443 49.0618C83.1443 44.8259 81.4564 40.7175 77.7938 40.2238L104.355 40.383C111.091 41.2589 116.729 45.654 119.372 51.6734Z" fill="url(#paint0_linear_34_439)"/>
<path d="M23.906 55.4156C23.906 61.5942 18.9058 66.6103 12.7431 66.6103H2.40822C1.89864 64.8268 1.62793 62.9318 1.62793 60.9891V59.3807C1.62793 58.0271 1.77125 56.6895 2.04196 55.4156H23.906Z" fill="url(#paint1_linear_34_439)"/>
<path d="M42.2826 81.7384L20.3071 81.6429C20.3071 81.6429 20.2434 81.6429 20.1956 81.6269C13.0456 80.8944 6.96256 76.4993 3.85733 70.3366H37.362V73.5215C37.362 77.5025 39.2092 80.2415 42.2826 81.7384Z" fill="url(#paint2_linear_34_439)"/>
<path d="M45.6904 40.176C45.4993 40.176 45.3242 40.1919 45.1331 40.2238C41.359 40.6697 37.8398 45.7814 37.8398 49.5873V51.5778H3.28406C6.0708 45.3673 12.0583 40.8767 19.1287 40.2875H19.1924L45.6904 40.176Z" fill="url(#paint3_linear_34_439)"/>
<path d="M50.9773 66.6103V70.3366H69.4495C75.4848 70.3366 80.4054 75.1457 80.5965 81.1651V81.5473H49.1301C42.9674 81.5473 39.8781 78.4421 39.8781 72.2157V64.7472C39.8781 58.5208 42.9674 55.4156 49.1301 55.4156H69.4972V51.6734H40.515C40.515 51.6734 40.4832 51.546 40.4832 51.3071C40.4832 43.8068 46.8529 40.4786 51.7098 40.4786H71.3444C77.5231 40.4786 80.6124 43.5838 80.6124 49.8102V57.2787C80.6124 63.5051 77.5231 66.6103 71.3444 66.6103H50.9773Z" fill="url(#paint4_linear_34_439)"/>
<defs>
<linearGradient id="paint0_linear_34_439" x1="12.1352" y1="68.1726" x2="29.9437" y2="18.0596" gradientUnits="userSpaceOnUse">
<stop stop-color="#FF5140"/>
<stop offset="0.47" stop-color="#FF457C"/>
<stop offset="1" stop-color="#C700F9"/>
</linearGradient>
<linearGradient id="paint1_linear_34_439" x1="119.372" y1="60.9868" x2="1.62793" y2="60.9868" gradientUnits="userSpaceOnUse">
<stop stop-color="#FF37C0"/>
<stop offset="1" stop-color="#FF4483"/>
</linearGradient>
<linearGradient id="paint2_linear_34_439" x1="1.62793" y1="60.9572" x2="119.372" y2="60.9572" gradientUnits="userSpaceOnUse">
<stop stop-color="#FF5140"/>
<stop offset="1" stop-color="#FF37C0"/>
</linearGradient>
<linearGradient id="paint3_linear_34_439" x1="1.62793" y1="60.9572" x2="119.372" y2="60.9572" gradientUnits="userSpaceOnUse">
<stop stop-color="#FF5140"/>
<stop offset="1" stop-color="#FF37C0"/>
</linearGradient>
<linearGradient id="paint4_linear_34_439" x1="45.6587" y1="82.1683" x2="78.5423" y2="42.9787" gradientUnits="userSpaceOnUse">
<stop stop-color="#FF36C1"/>
<stop offset="0.47" stop-color="#FF457C"/>
<stop offset="1" stop-color="#FFA400"/>
</linearGradient>
</defs>
</svg>
