<?xml version="1.0" encoding="UTF-8"?><svg id="Layer_1" xmlns="http://www.w3.org/2000/svg" viewBox="0 0 598.206 108.951"><defs><style>.cls-1{fill:#7e00e5;}</style></defs><path class="cls-1" d="M0,.648h76.358v15.175H16.466v29.057h50.529v15.175H16.466v46.169H0V.648Z"/><path class="cls-1" d="M91.852,26.477h15.337v79.748h-15.337V26.477Z"/><path class="cls-1" d="M91.852.629h15.337v15.27h-15.337V.629Z"/><path class="cls-1" d="M582.87.629h15.337v15.27h-15.337V.629Z"/><path class="cls-1" d="M218.658,76.037V.661h15.337v25.815h43.91v14.045h-43.91v35.515c0,12.592,6.619,18.08,16.628,18.08s16.789-5.328,16.789-18.08v-1.776h15.175v1.776c0,21.632-12.915,32.285-31.964,32.285s-31.964-10.654-31.964-32.285Z"/><path class="cls-1" d="M295.492,66.352c0-24.215,17.758-41.973,42.941-41.973s42.941,17.758,42.941,41.973-17.758,41.971-42.941,41.971-42.941-17.758-42.941-41.971ZM365.877,66.352c0-16.144-10.977-27.767-27.443-27.767s-27.443,11.624-27.443,27.767,10.977,27.765,27.443,27.765,27.443-11.624,27.443-27.765Z"/><path class="cls-1" d="M398.562.661h15.337v61.17l36.645-35.355h20.179l-41.65,38.905,43.103,40.843h-20.502l-37.775-37.129v37.129h-15.337V.661Z"/><path class="cls-1" d="M478.464,66.352c0-24.215,17.758-41.973,42.941-41.973s42.619,17.758,42.619,41.973v5.65h-69.417c2.261,14.206,12.915,22.116,26.798,22.116,10.332,0,17.596-3.228,22.277-10.17h16.951c-6.134,14.852-20.663,24.376-39.228,24.376-25.183,0-42.941-17.758-42.941-41.971ZM547.88,58.28c-3.067-12.754-13.561-19.695-26.475-19.695-13.238,0-23.246,7.104-26.313,19.695h52.789Z"/><path class="cls-1" d="M582.87,26.477h15.337v79.748h-15.337V26.477Z"/><path class="cls-1" d="M200.318,106.188h-14.886v-31.777c0-18.096-14.722-32.817-32.818-32.817h-29.27v-14.888h29.27c26.304,0,47.704,21.4,47.704,47.705v31.777Z"/></svg>