<svg width="121" height="121" viewBox="0 0 121 121" fill="none" xmlns="http://www.w3.org/2000/svg">
<path d="M101.43 12.6548H19.5702C9.49944 12.6548 1.33545 20.8188 1.33545 30.8896V91.025C1.33545 101.096 9.49944 109.26 19.5702 109.26H101.43C111.501 109.26 119.665 101.096 119.665 91.025V30.8896C119.665 20.8188 111.501 12.6548 101.43 12.6548Z" fill="#DCD625"/>
<path fill-rule="evenodd" clip-rule="evenodd" d="M97.1283 55.3676H85.2256V78.6908C85.2256 81.0511 85.8854 82.891 87.1925 84.1981C88.4995 85.5051 90.2125 86.1649 92.3063 86.1649C93.8164 86.1649 95.4279 85.9365 97.1283 85.4797V96.2023C95.2249 96.6591 93.1311 96.8875 90.8343 96.8875C85.3271 96.8875 80.9239 95.4409 77.65 92.5604C74.4395 89.6672 72.828 85.4797 72.828 79.9598V55.3549H64.161V45.0256H72.828V29.9632H85.2256V45.0256H97.1283V55.3676Z" fill="#08271F"/>
<path fill-rule="evenodd" clip-rule="evenodd" d="M21.3214 55.3168H29.9883V96.0627H42.3859V55.3168H54.3902V44.9876H42.3859V41.5487C42.3859 39.1885 43.0458 37.3485 44.3528 36.0415C45.7359 34.7345 47.3983 34.0746 49.3778 34.0746C51.1543 34.0746 52.8167 34.2777 54.4028 34.671V24.1388C52.4994 23.6819 50.3041 23.4535 47.8043 23.4535C42.4874 23.4535 38.1984 24.9001 34.9118 27.7806C31.6252 30.6738 29.9883 34.8614 29.9883 40.3813V45.0129H21.3214V55.3422V55.3168Z" fill="#08271F"/>
</svg>
