<svg width="121" height="121" viewBox="0 0 121 121" fill="none" xmlns="http://www.w3.org/2000/svg">
<g clip-path="url(#clip0_18_124)">
<rect width="120" height="120" transform="translate(0.5 0.957275)" fill="#121355"/>
<path d="M31.5478 18.3574C31.5478 22.9654 27.8123 26.7009 23.2043 26.7009C18.5963 26.7009 14.8608 22.9654 14.8608 18.3574C14.8608 13.7494 18.5963 10.0139 23.2043 10.0139C27.8123 10.0139 31.5478 13.7494 31.5478 18.3574Z" fill="url(#paint0_linear_18_124)"/>
<path d="M52.4065 89.277C52.4065 84.6689 56.142 80.9335 60.75 80.9335C65.3581 80.9335 69.0935 84.6689 69.0935 89.277V101.792C69.0935 106.4 65.3581 110.136 60.75 110.136C56.142 110.136 52.4065 106.4 52.4065 101.792V89.277Z" fill="url(#paint1_linear_18_124)"/>
<path d="M50.8542 10.0139C46.2462 10.0139 42.5107 13.7494 42.5107 18.3574C42.5107 22.9654 46.2462 26.7009 50.8542 26.7009H75.795C83.6136 26.7009 89.9522 33.0393 89.9522 40.8581C89.9522 48.677 83.6136 55.0153 75.795 55.0153H14.8608V101.792C14.8608 106.4 18.5963 110.136 23.2043 110.136C27.8123 110.136 31.5478 106.4 31.5478 101.792V71.7023H75.795C92.8299 71.7023 106.639 57.893 106.639 40.8581C106.639 23.8233 92.8299 10.0139 75.795 10.0139H50.8542Z" fill="url(#paint2_linear_18_124)"/>
<g filter="url(#filter0_d_18_124)">
<path d="M31.5478 19.3574C31.5478 23.9654 27.8123 27.7009 23.2043 27.7009C18.5963 27.7009 14.8608 23.9654 14.8608 19.3574C14.8608 14.7494 18.5963 11.0139 23.2043 11.0139C27.8123 11.0139 31.5478 14.7494 31.5478 19.3574Z" fill="white"/>
<path d="M52.4065 90.277C52.4065 85.6689 56.142 81.9335 60.75 81.9335C65.3581 81.9335 69.0935 85.6689 69.0935 90.277V102.792C69.0935 107.4 65.3581 111.136 60.75 111.136C56.142 111.136 52.4065 107.4 52.4065 102.792V90.277Z" fill="white"/>
<path d="M50.8542 11.0139C46.2462 11.0139 42.5107 14.7494 42.5107 19.3574C42.5107 23.9654 46.2462 27.7009 50.8542 27.7009H75.795C83.6136 27.7009 89.9522 34.0393 89.9522 41.8581C89.9522 49.677 83.6136 56.0153 75.795 56.0153H14.8608V102.792C14.8608 107.4 18.5963 111.136 23.2043 111.136C27.8123 111.136 31.5478 107.4 31.5478 102.792V72.7023H75.795C92.8299 72.7023 106.639 58.893 106.639 41.8581C106.639 24.8233 92.8299 11.0139 75.795 11.0139H50.8542Z" fill="white"/>
</g>
<mask id="mask0_18_124" style="mask-type:alpha" maskUnits="userSpaceOnUse" x="14" y="11" width="93" height="101">
<path d="M31.5478 19.3574C31.5478 23.9654 27.8123 27.7009 23.2043 27.7009C18.5963 27.7009 14.8608 23.9654 14.8608 19.3574C14.8608 14.7494 18.5963 11.0139 23.2043 11.0139C27.8123 11.0139 31.5478 14.7494 31.5478 19.3574Z" fill="#FF0000"/>
<path d="M52.4065 90.277C52.4065 85.6689 56.142 81.9335 60.75 81.9335C65.3581 81.9335 69.0935 85.6689 69.0935 90.277V102.792C69.0935 107.4 65.3581 111.136 60.75 111.136C56.142 111.136 52.4065 107.4 52.4065 102.792V90.277Z" fill="#FF0000"/>
<path d="M50.8542 11.0139C46.2462 11.0139 42.5107 14.7494 42.5107 19.3574C42.5107 23.9654 46.2462 27.7009 50.8542 27.7009H75.795C83.6136 27.7009 89.9522 34.0393 89.9522 41.8581C89.9522 49.677 83.6136 56.0153 75.795 56.0153H14.8608V102.792C14.8608 107.4 18.5963 111.136 23.2043 111.136C27.8123 111.136 31.5478 107.4 31.5478 102.792V72.7023H75.795C92.8299 72.7023 106.639 58.893 106.639 41.8581C106.639 24.8233 92.8299 11.0139 75.795 11.0139H50.8542Z" fill="#FF0000"/>
</mask>
<g mask="url(#mask0_18_124)">
<path d="M32.5478 18.3574C32.5478 22.9654 28.8123 26.7009 24.2043 26.7009C19.5963 26.7009 15.8608 22.9654 15.8608 18.3574C15.8608 13.7494 19.5963 10.0139 24.2043 10.0139C28.8123 10.0139 32.5478 13.7494 32.5478 18.3574Z" fill="#EAEAEA"/>
<path d="M53.4065 89.277C53.4065 84.6689 57.142 80.9335 61.75 80.9335C66.3581 80.9335 70.0935 84.6689 70.0935 89.277V101.792C70.0935 106.4 66.3581 110.136 61.75 110.136C57.142 110.136 53.4065 106.4 53.4065 101.792V89.277Z" fill="#EAEAEA"/>
<path d="M51.8542 10.0139C47.2462 10.0139 43.5107 13.7494 43.5107 18.3574C43.5107 22.9654 47.2462 26.7009 51.8542 26.7009H76.795C84.6136 26.7009 90.9522 33.0393 90.9522 40.8581C90.9522 48.677 84.6136 55.0153 76.795 55.0153H15.8608V101.792C15.8608 106.4 19.5963 110.136 24.2043 110.136C28.8123 110.136 32.5478 106.4 32.5478 101.792V71.7023H76.795C93.8299 71.7023 107.639 57.893 107.639 40.8581C107.639 23.8233 93.8299 10.0139 76.795 10.0139H51.8542Z" fill="#EAEAEA"/>
</g>
<mask id="mask1_18_124" style="mask-type:alpha" maskUnits="userSpaceOnUse" x="14" y="11" width="93" height="101">
<path d="M31.5478 19.3574C31.5478 23.9654 27.8123 27.7009 23.2043 27.7009C18.5963 27.7009 14.8608 23.9654 14.8608 19.3574C14.8608 14.7494 18.5963 11.0139 23.2043 11.0139C27.8123 11.0139 31.5478 14.7494 31.5478 19.3574Z" fill="white"/>
<path d="M52.4065 90.277C52.4065 85.6689 56.142 81.9335 60.75 81.9335C65.3581 81.9335 69.0935 85.6689 69.0935 90.277V102.792C69.0935 107.4 65.3581 111.136 60.75 111.136C56.142 111.136 52.4065 107.4 52.4065 102.792V90.277Z" fill="white"/>
<path d="M50.8542 11.0139C46.2462 11.0139 42.5107 14.7494 42.5107 19.3574C42.5107 23.9654 46.2462 27.7009 50.8542 27.7009H75.795C83.6136 27.7009 89.9522 34.0393 89.9522 41.8581C89.9522 49.677 83.6136 56.0153 75.795 56.0153H14.8608V102.792C14.8608 107.4 18.5963 111.136 23.2043 111.136C27.8123 111.136 31.5478 107.4 31.5478 102.792V72.7023H75.795C92.8299 72.7023 106.639 58.893 106.639 41.8581C106.639 24.8233 92.8299 11.0139 75.795 11.0139H50.8542Z" fill="white"/>
</mask>
<g mask="url(#mask1_18_124)">
<g opacity="0.6" filter="url(#filter1_d_18_124)">
<path d="M61.5275 48.6956C63.5447 59.3291 32.2367 72.2913 14.0975 70.6637L13.0717 71.7468L9.10327 43.5732C27.3438 43.5732 60.7092 44.3825 61.5275 48.6956Z" fill="url(#paint3_linear_18_124)"/>
</g>
</g>
<path d="M81.8741 105.944V98.9137H85.437C85.7228 98.9137 86.034 98.9962 86.3706 99.1614C86.7072 99.3201 86.993 99.5678 87.2279 99.9044C87.4693 100.235 87.5899 100.654 87.5899 101.162C87.5899 101.676 87.4661 102.115 87.2184 102.477C86.9707 102.832 86.6691 103.102 86.3134 103.286C85.9641 103.47 85.6339 103.563 85.3227 103.563H82.7505V102.419H84.8463C85.0559 102.419 85.2814 102.315 85.5227 102.105C85.7704 101.895 85.8942 101.581 85.8942 101.162C85.8942 100.73 85.7704 100.438 85.5227 100.285C85.2814 100.133 85.0686 100.057 84.8845 100.057H83.4174V105.944H81.8741ZM86.1229 102.629L87.8757 105.944H86.18L84.4653 102.629H86.1229ZM84.5415 110.136C83.4873 110.136 82.4997 109.939 81.5788 109.545C80.6579 109.151 79.8482 108.605 79.1496 107.907C78.451 107.208 77.9048 106.398 77.511 105.477C77.1173 104.556 76.9204 103.569 76.9204 102.515C76.9204 101.46 77.1173 100.473 77.511 99.5519C77.9048 98.6311 78.451 97.8213 79.1496 97.1227C79.8482 96.4241 80.6579 95.8779 81.5788 95.4842C82.4997 95.0904 83.4873 94.8936 84.5415 94.8936C85.5958 94.8936 86.5833 95.0904 87.5042 95.4842C88.4251 95.8779 89.2348 96.4241 89.9334 97.1227C90.632 97.8213 91.1782 98.6311 91.572 99.5519C91.9657 100.473 92.1626 101.46 92.1626 102.515C92.1626 103.569 91.9657 104.556 91.572 105.477C91.1782 106.398 90.632 107.208 89.9334 107.907C89.2348 108.605 88.4251 109.151 87.5042 109.545C86.5833 109.939 85.5958 110.136 84.5415 110.136ZM84.5415 108.307C85.6085 108.307 86.5801 108.046 87.4566 107.526C88.333 107.005 89.0316 106.306 89.5524 105.43C90.0731 104.553 90.3335 103.582 90.3335 102.515C90.3335 101.448 90.0731 100.476 89.5524 99.5996C89.0316 98.7232 88.333 98.0246 87.4566 97.5038C86.5801 96.983 85.6085 96.7226 84.5415 96.7226C83.4746 96.7226 82.5029 96.983 81.6264 97.5038C80.75 98.0246 80.0514 98.7232 79.5306 99.5996C79.0099 100.476 78.7495 101.448 78.7495 102.515C78.7495 103.582 79.0099 104.553 79.5306 105.43C80.0514 106.306 80.75 107.005 81.6264 107.526C82.5029 108.046 83.4746 108.307 84.5415 108.307Z" fill="white"/>
</g>
<defs>
<filter id="filter0_d_18_124" x="9.86084" y="7.01392" width="105.778" height="114.122" filterUnits="userSpaceOnUse" color-interpolation-filters="sRGB">
<feFlood flood-opacity="0" result="BackgroundImageFix"/>
<feColorMatrix in="SourceAlpha" type="matrix" values="0 0 0 0 0 0 0 0 0 0 0 0 0 0 0 0 0 0 127 0" result="hardAlpha"/>
<feOffset dx="2" dy="3"/>
<feGaussianBlur stdDeviation="3.5"/>
<feComposite in2="hardAlpha" operator="out"/>
<feColorMatrix type="matrix" values="0 0 0 0 0 0 0 0 0 0 0 0 0 0 0 0 0 0 0.5 0"/>
<feBlend mode="normal" in2="BackgroundImageFix" result="effect1_dropShadow_18_124"/>
<feBlend mode="normal" in="SourceGraphic" in2="effect1_dropShadow_18_124" result="shape"/>
</filter>
<filter id="filter1_d_18_124" x="-24.8967" y="13.5732" width="120.517" height="96.1736" filterUnits="userSpaceOnUse" color-interpolation-filters="sRGB">
<feFlood flood-opacity="0" result="BackgroundImageFix"/>
<feColorMatrix in="SourceAlpha" type="matrix" values="0 0 0 0 0 0 0 0 0 0 0 0 0 0 0 0 0 0 127 0" result="hardAlpha"/>
<feOffset dy="4"/>
<feGaussianBlur stdDeviation="17"/>
<feComposite in2="hardAlpha" operator="out"/>
<feColorMatrix type="matrix" values="0 0 0 0 0 0 0 0 0 0 0 0 0 0 0 0 0 0 1 0"/>
<feBlend mode="normal" in2="BackgroundImageFix" result="effect1_dropShadow_18_124"/>
<feBlend mode="normal" in="SourceGraphic" in2="effect1_dropShadow_18_124" result="shape"/>
</filter>
<linearGradient id="paint0_linear_18_124" x1="82.669" y1="11.4011" x2="14.8608" y2="60.0748" gradientUnits="userSpaceOnUse">
<stop/>
<stop offset="0.18339" stop-color="#E9E9E9"/>
<stop offset="0.425"/>
<stop offset="0.880303" stop-color="white"/>
</linearGradient>
<linearGradient id="paint1_linear_18_124" x1="82.669" y1="11.4011" x2="14.8608" y2="60.0748" gradientUnits="userSpaceOnUse">
<stop/>
<stop offset="0.18339" stop-color="#E9E9E9"/>
<stop offset="0.425"/>
<stop offset="0.880303" stop-color="white"/>
</linearGradient>
<linearGradient id="paint2_linear_18_124" x1="82.669" y1="11.4011" x2="14.8608" y2="60.0748" gradientUnits="userSpaceOnUse">
<stop/>
<stop offset="0.18339" stop-color="#E9E9E9"/>
<stop offset="0.425"/>
<stop offset="0.880303" stop-color="white"/>
</linearGradient>
<linearGradient id="paint3_linear_18_124" x1="15.6276" y1="59.1803" x2="55.5745" y2="59.1803" gradientUnits="userSpaceOnUse">
<stop stop-color="white"/>
<stop offset="1" stop-color="#B7B7B7"/>
</linearGradient>
<clipPath id="clip0_18_124">
<rect width="120" height="120" fill="white" transform="translate(0.5 0.957275)"/>
</clipPath>
</defs>
</svg>
