<svg width="121" height="121" viewBox="0 0 121 121" fill="none" xmlns="http://www.w3.org/2000/svg">
<rect width="120" height="120" transform="translate(0.0599365 0.283386)" fill="black"/>
<path d="M51.0739 63.5408H18.4999V86.3465H8.72382V41.6692C8.72382 39.6377 9.45547 37.8864 10.9188 36.4231C12.3821 34.952 14.1334 34.2203 16.1726 34.2203H51.0816V43.9964H18.4999V53.7725H51.0816V63.5486L51.0739 63.5408Z" fill="white"/>
<path d="M111.396 34.2203V62.1865L81.9977 34.2203H111.396Z" fill="#635BFF"/>
<path d="M65.847 34.267H63.006C61.1379 34.3527 59.5267 35.0765 58.1569 36.4464C56.8959 37.7073 56.1798 39.1862 56.0086 40.8752V86.3387H65.7847V49.6706L104.515 86.3387H111.396V77.6212L65.847 34.267Z" fill="white"/>
</svg>
