<svg width="141" height="121" viewBox="0 0 141 121" fill="none" xmlns="http://www.w3.org/2000/svg">
<path d="M140.571 48.8361V72.8361H66.0325C58.8325 72.8361 52.3249 76.0669 47.9402 81.19L40.0018 90.9746C36.9556 94.7592 32.3864 96.8823 27.4941 96.8823H0.724854V72.8823H44.8479C45.171 72.8823 45.4479 72.8823 45.771 72.79C52.1864 72.19 57.8633 68.913 61.8325 64.1592L69.5402 54.6977C72.5864 50.913 77.1556 48.79 82.0479 48.79L140.525 48.8823L140.571 48.8361Z" fill="url(#paint0_linear_1159_12915)"/>
<path d="M54.7249 120.836H140.571V96.8361H82.0018C77.1095 96.8361 72.6325 98.9592 69.5864 102.744L54.7249 120.836Z" fill="url(#paint1_linear_1159_12915)"/>
<path d="M46.8787 34.4823C47.2018 34.0669 47.4787 33.6515 47.8018 33.2823C52.1864 28.113 58.7864 24.8361 66.2172 24.8361H140.663V0.836121H82.0941C77.2018 0.836121 72.6325 2.9592 69.5864 6.74381L62.571 15.3746C62.3864 15.6977 62.1556 15.9746 61.8787 16.2054C57.9095 21.0054 52.3249 24.1438 45.8172 24.8361C45.4941 24.8361 45.2172 24.9284 44.8941 24.9284H0.724854V48.9284H27.4479C32.3402 48.9284 36.9095 46.8054 39.9556 43.0207L46.8787 34.4823Z" fill="url(#paint2_linear_1159_12915)"/>
<defs>
<linearGradient id="paint0_linear_1159_12915" x1="12.2709" y1="-87.7243" x2="216.193" y2="-4.26046" gradientUnits="userSpaceOnUse">
<stop offset="0.12" stop-color="#28E7C5"/>
<stop offset="1" stop-color="#6958E2"/>
</linearGradient>
<linearGradient id="paint1_linear_1159_12915" x1="-75.3385" y1="-396.318" x2="273.848" y2="-280.131" gradientUnits="userSpaceOnUse">
<stop offset="0.12" stop-color="#28E7C5"/>
<stop offset="1" stop-color="#6958E2"/>
</linearGradient>
<linearGradient id="paint2_linear_1159_12915" x1="36.2633" y1="-10.2408" x2="152.802" y2="108.698" gradientUnits="userSpaceOnUse">
<stop offset="0.12" stop-color="#28E7C5"/>
<stop offset="1" stop-color="#6958E2"/>
</linearGradient>
</defs>
</svg>
