<svg width="85" height="68" viewBox="0 0 85 68" fill="none" xmlns="http://www.w3.org/2000/svg">
<path d="M35.2253 24.218H8.88357V42.6604H0.977905V6.53099C0.977905 4.88817 1.56957 3.47195 2.7529 2.28862C3.93623 1.09899 5.35246 0.507324 7.00157 0.507324H35.2316V8.41299H8.88357V16.3187H35.2316V24.2243L35.2253 24.218Z" fill="white"/>
<path d="M84.0063 0.507324V23.1228L60.2326 0.507324H84.0063Z" fill="#635BFF"/>
<path d="M47.1719 0.54509H44.8745C43.3638 0.614328 42.0609 1.1997 40.9531 2.3075C39.9334 3.32718 39.3544 4.5231 39.2159 5.88897V42.6541H47.1215V13.0015L78.4421 42.6541H84.0063V35.6044L47.1719 0.54509Z" fill="white"/>
<path d="M8.20321 50.4968H18.1498V51.9398H9.76581V56.8823H17.2624V58.306H9.76581V64.3365H8.20321V50.4968Z" fill="white"/>
<path d="M19.18 54.1197H20.704V60.0923C20.704 61.9906 21.711 63.1789 23.5321 63.1789C25.3532 63.1789 26.5956 61.8941 26.5956 59.9766V54.1236H28.1003V64.348H26.5956V62.5693C25.905 63.6766 24.8555 64.5679 23.0961 64.5679C20.6423 64.5679 19.18 62.9089 19.18 60.4743V54.1197Z" fill="white"/>
<path d="M32.055 55.4624H30.6313V54.1159H32.055V51.0293H33.579V54.1159H36.8238V55.4624H33.579V61.435C33.579 62.7005 34.2697 63.1365 35.2998 63.1365C35.8323 63.1365 36.249 63.0362 36.7814 62.7816V64.0857C36.249 64.3828 35.6741 64.5217 34.941 64.5217C33.282 64.5217 32.055 63.7114 32.055 61.6357V55.4624Z" fill="white"/>
<path d="M39.3511 54.1197H40.8751V60.0923C40.8751 61.9906 41.8821 63.1789 43.7032 63.1789C45.5243 63.1789 46.7667 61.8941 46.7667 59.9766V54.1236H48.2714V64.348H46.7667V62.5693C46.076 63.6766 45.0266 64.5679 43.2672 64.5679C40.8133 64.5679 39.3511 62.9089 39.3511 60.4743V54.1197Z" fill="white"/>
<path d="M52.8241 54.1159V56.7858C53.5765 55.0843 55.0581 53.8805 56.9949 53.9384V55.5782H56.8753C54.6414 55.5782 52.8203 57.1794 52.8203 60.266V64.3403H51.2962V54.1159H52.8241Z" fill="white"/>
<path d="M57.8437 59.2589V59.2204C57.8437 56.2726 59.9002 53.8998 62.7476 53.8998C65.7725 53.8998 67.5126 56.3112 67.5126 59.2975C67.5126 59.5136 67.5125 59.6139 67.4933 59.7914H59.387C59.6031 62.006 61.1657 63.2523 62.9868 63.2523C64.4105 63.2523 65.3596 62.6774 66.2085 61.8093L67.1576 62.6581C66.1274 63.8233 64.9044 64.5756 62.9444 64.5756C60.1548 64.5756 57.8437 62.4189 57.8437 59.2551V59.2589ZM65.9731 58.6648C65.8149 56.8244 64.7655 55.1846 62.709 55.1846C60.911 55.1846 59.6031 56.6893 59.387 58.6648H65.9731Z" fill="white"/>
<path d="M68.9401 63.0362L69.7118 61.9482C70.8191 62.797 72.046 63.2523 73.2498 63.2523C74.4536 63.2523 75.3641 62.6388 75.3641 61.6318V61.5932C75.3641 60.5862 74.1565 60.1695 72.8138 59.7952C71.2319 59.3207 69.434 58.8075 69.434 56.9093V56.8707C69.434 55.1113 70.8963 53.9422 72.9141 53.9422C74.1796 53.9422 75.5455 54.3782 76.5911 55.0689L75.9004 56.2148C74.9513 55.6013 73.8826 55.227 72.8755 55.227C71.6679 55.227 70.9001 55.8598 70.9001 56.7086V56.7472C70.9001 57.7156 72.1656 58.0937 73.5315 58.5066C75.1133 58.9811 76.8148 59.5946 76.8148 61.435V61.4736C76.8148 63.4104 75.2137 64.5371 73.1765 64.5371C71.6949 64.5371 70.113 63.9622 68.944 63.0323L68.9401 63.0362Z" fill="white"/>
<path d="M35.2253 24.218H8.88357V42.6604H0.977905V6.53099C0.977905 4.88817 1.56957 3.47195 2.7529 2.28862C3.93623 1.09899 5.35246 0.507324 7.00157 0.507324H35.2316V8.41299H8.88357V16.3187H35.2316V24.2243L35.2253 24.218Z" stroke="white" stroke-width="0.7" stroke-miterlimit="10"/>
<path d="M84.0063 0.507324V23.1228L60.2326 0.507324H84.0063Z" stroke="white" stroke-width="0.7" stroke-miterlimit="10"/>
<path d="M47.1719 0.54509H44.8745C43.3638 0.614328 42.0609 1.1997 40.9531 2.3075C39.9334 3.32718 39.3544 4.5231 39.2159 5.88897V42.6541H47.1215V13.0015L78.4421 42.6541H84.0063V35.6044L47.1719 0.54509Z" stroke="white" stroke-width="0.7" stroke-miterlimit="10"/>
<path d="M8.20321 50.4968H18.1498V51.9398H9.76581V56.8823H17.2624V58.306H9.76581V64.3365H8.20321V50.4968Z" stroke="white" stroke-width="0.7" stroke-miterlimit="10"/>
<path d="M19.18 54.1197H20.704V60.0923C20.704 61.9906 21.711 63.1789 23.5321 63.1789C25.3532 63.1789 26.5956 61.8941 26.5956 59.9766V54.1236H28.1003V64.348H26.5956V62.5693C25.905 63.6766 24.8555 64.5679 23.0961 64.5679C20.6423 64.5679 19.18 62.9089 19.18 60.4743V54.1197Z" stroke="white" stroke-width="0.7" stroke-miterlimit="10"/>
<path d="M32.055 55.4624H30.6313V54.1159H32.055V51.0293H33.579V54.1159H36.8238V55.4624H33.579V61.435C33.579 62.7005 34.2697 63.1365 35.2998 63.1365C35.8323 63.1365 36.249 63.0362 36.7814 62.7816V64.0857C36.249 64.3828 35.6741 64.5217 34.941 64.5217C33.282 64.5217 32.055 63.7114 32.055 61.6357V55.4624Z" stroke="white" stroke-width="0.7" stroke-miterlimit="10"/>
<path d="M39.3511 54.1197H40.8751V60.0923C40.8751 61.9906 41.8821 63.1789 43.7032 63.1789C45.5243 63.1789 46.7667 61.8941 46.7667 59.9766V54.1236H48.2714V64.348H46.7667V62.5693C46.076 63.6766 45.0266 64.5679 43.2672 64.5679C40.8133 64.5679 39.3511 62.9089 39.3511 60.4743V54.1197Z" stroke="white" stroke-width="0.7" stroke-miterlimit="10"/>
<path d="M52.8241 54.1159V56.7858C53.5765 55.0843 55.0581 53.8805 56.9949 53.9384V55.5782H56.8753C54.6414 55.5782 52.8203 57.1794 52.8203 60.266V64.3403H51.2962V54.1159H52.8241Z" stroke="white" stroke-width="0.7" stroke-miterlimit="10"/>
<path d="M57.8437 59.2589V59.2204C57.8437 56.2726 59.9002 53.8998 62.7476 53.8998C65.7725 53.8998 67.5126 56.3112 67.5126 59.2975C67.5126 59.5136 67.5125 59.6139 67.4933 59.7914H59.387C59.6031 62.006 61.1657 63.2523 62.9868 63.2523C64.4105 63.2523 65.3596 62.6774 66.2085 61.8093L67.1576 62.6581C66.1274 63.8233 64.9044 64.5756 62.9444 64.5756C60.1548 64.5756 57.8437 62.4189 57.8437 59.2551V59.2589ZM65.9731 58.6648C65.8149 56.8244 64.7655 55.1846 62.709 55.1846C60.911 55.1846 59.6031 56.6893 59.387 58.6648H65.9731Z" stroke="white" stroke-width="0.7" stroke-miterlimit="10"/>
<path d="M68.9401 63.0362L69.7118 61.9482C70.8191 62.797 72.046 63.2523 73.2498 63.2523C74.4536 63.2523 75.3641 62.6388 75.3641 61.6318V61.5932C75.3641 60.5862 74.1565 60.1695 72.8138 59.7952C71.2319 59.3207 69.434 58.8075 69.434 56.9093V56.8707C69.434 55.1113 70.8963 53.9422 72.9141 53.9422C74.1796 53.9422 75.5455 54.3782 76.5911 55.0689L75.9004 56.2148C74.9513 55.6013 73.8826 55.227 72.8755 55.227C71.6679 55.227 70.9001 55.8598 70.9001 56.7086V56.7472C70.9001 57.7156 72.1656 58.0937 73.5315 58.5066C75.1133 58.9811 76.8148 59.5946 76.8148 61.435V61.4736C76.8148 63.4104 75.2137 64.5371 73.1765 64.5371C71.6949 64.5371 70.113 63.9622 68.944 63.0323L68.9401 63.0362Z" stroke="white" stroke-width="0.7" stroke-miterlimit="10"/>
<path d="M80.1638 47.5839H4.85034C2.71947 47.5839 0.992065 49.3113 0.992065 51.4421V63.6343C0.992065 65.7651 2.71947 67.4925 4.85034 67.4925H80.1638C82.2947 67.4925 84.0221 65.7651 84.0221 63.6343V51.4421C84.0221 49.3113 82.2947 47.5839 80.1638 47.5839Z" stroke="white" stroke-width="0.7" stroke-miterlimit="10"/>
</svg>
