<svg width="120" height="120" viewBox="0 0 120 120" fill="none" xmlns="http://www.w3.org/2000/svg">
<path d="M85.189 45.1639H38.3983C36.931 45.1639 35.749 46.3867 35.749 47.8947V71.4124C35.749 72.9204 36.931 74.1432 38.3983 74.1432H60.5301C75.0809 74.1432 86.8601 61.9564 86.8601 46.9165C86.8601 45.9383 86.0857 45.1639 85.1482 45.1639H85.189Z" fill="white"/>
<path d="M26.5376 45.1639H5.42469C3.95739 45.1639 2.77539 46.3867 2.77539 47.8947V83.2731C2.77539 97.4163 13.8617 108.869 27.5565 108.869C28.4532 108.869 29.1461 108.136 29.1461 107.198V47.854C29.1461 46.3459 27.9641 45.1232 26.4968 45.1232L26.5376 45.1639Z" fill="white"/>
<path d="M115.636 11.0898H56.8619C45.205 11.0898 35.749 20.8719 35.749 32.8956V35.6264C35.749 37.1345 36.931 38.3573 38.3983 38.3573H92.444C106.139 38.3573 117.225 26.9041 117.225 12.7609C117.225 11.8643 116.492 11.0898 115.636 11.0898Z" fill="white"/>
<path d="M62.8126 80.6238H38.3983C36.931 80.6238 35.749 81.8465 35.749 83.3546V107.117C35.749 108.095 36.5234 108.91 37.5016 108.91H38.7244C52.9491 108.91 64.4429 97.0087 64.4429 82.3356C64.4429 81.3982 63.7093 80.6238 62.7718 80.6238H62.8126Z" fill="white"/>
<path d="M2.77539 24.7032C2.77539 32.2435 8.68537 38.3165 15.9811 38.3165C23.2769 38.3165 29.1869 32.2027 29.1869 24.7032C29.1869 17.2036 23.2769 11.0898 15.9811 11.0898C8.68537 11.0898 2.77539 17.2036 2.77539 24.7032Z" fill="white"/>
</svg>
