<svg width="121" height="121" viewBox="0 0 121 121" fill="none" xmlns="http://www.w3.org/2000/svg">
<g clip-path="url(#clip0_18_122)">
<path d="M117.698 51.5448C117.705 51.5532 117.699 51.5662 117.688 51.5654C115.557 51.4182 113.413 51.3393 111.295 51.419C108.017 51.5218 105.942 50.3904 104.7 47.6935C103.445 44.9508 101.66 42.3795 100.365 39.6368C98.819 36.4141 96.2419 34.4714 92.3432 33.58C88.048 32.6087 83.8718 31.3402 79.6163 30.2659C77.3432 29.6945 75.308 28.8603 74.145 26.9976C71.2562 22.3654 68.153 17.8321 65.2331 13.2146C62.4422 8.8011 53.8375 5.70707 50.938 10.05C45.5591 18.1638 38.1715 23.7978 27.2023 25.4548C24.0834 25.9348 22.3918 27.7632 21.5063 30.3916C19.5636 36.2084 17.2772 41.9338 15.4006 47.7506C14.5548 50.3562 12.8763 51.3847 9.90277 51.3847C7.3389 51.3847 4.76184 51.5447 2.21119 51.7389C1.35216 51.7961 0.41382 52.1732 0.506331 53.076C0.598842 53.9902 1.5768 54.1616 2.43583 54.1959C5.71336 54.2874 9.00412 54.3902 12.2816 54.3559C14.9512 54.3216 16.8543 55.3501 18.5459 57.0415C24.7574 63.2468 29.4622 69.9893 29.5548 78.5373C29.568 79.8744 30.0173 81.2229 30.308 82.5485C30.6649 84.1141 31.6164 85.3941 33.4799 85.7369C39.6384 86.8682 41.8058 90.8566 43.0745 95.5306C44.2772 99.976 45.4534 104.421 46.7089 108.867C47.0657 110.124 47.6869 112.238 49.59 110.57C52.8675 107.724 53.8323 110.044 55.2067 111.907C56.2111 113.267 57.1098 114.661 58.1406 116.009C60.2948 118.809 61.101 118.798 63.123 115.815C67.5371 109.324 71.8983 102.81 76.3124 96.3305C77.2375 94.9706 77.9644 93.1536 80.1185 93.1193C82.7881 93.085 83.3829 91.508 84.1229 89.8966C89.2243 78.8573 95.3036 68.2751 102.559 58.1728C104.647 55.2473 107.026 53.9674 110.885 54.2645C113.145 54.4473 115.458 54.3102 117.731 54.2531C118.841 54.2188 120.374 54.4016 120.493 53.0874C120.624 51.5009 118.897 51.6112 117.708 51.5241C117.697 51.5232 117.691 51.5363 117.698 51.5448ZM75.982 51.3047C69.1362 51.4189 62.2904 51.3504 55.4181 51.3618H50.3229C50.2977 51.3618 50.2772 51.3823 50.2772 51.4075C50.2772 51.4328 50.2567 51.4532 50.2315 51.4532C42.1058 51.4529 33.9801 51.3507 25.8675 51.499C22.3125 51.5561 21.1891 50.6076 22.1935 47.5563C23.7926 42.6995 25.1803 37.7741 26.5944 32.8601C27.123 31.0202 28.2332 29.5346 30.4798 29.386C40.4182 28.7346 46.2464 23.2607 51.1098 16.5639C51.5591 15.9354 52.0877 15.3526 52.6164 14.7697C53.1318 14.1983 53.5415 13.2155 54.4798 13.4441C55.7353 13.7412 55.286 14.8954 55.286 15.6954C55.3389 20.8722 55.2992 26.0605 55.3257 31.2373C55.3257 36.997 55.4974 37.1455 61.6692 38.6997C64.5503 39.4197 67.3124 40.5053 70.2199 41.0881C74.4093 41.911 76.8146 44.2194 78.5327 47.3963C80.1582 50.3676 79.7617 51.2247 75.982 51.3047Z" fill="#E9AC28"/>
</g>
<defs>
<clipPath id="clip0_18_122">
<rect width="120" height="120" fill="white" transform="translate(0.5 0.957275)"/>
</clipPath>
</defs>
</svg>
