<svg width="121" height="121" viewBox="0 0 121 121" fill="none" xmlns="http://www.w3.org/2000/svg">
<path d="M116.409 106.538L106.621 30.4146C108.951 28.4521 110.448 25.4101 110.448 21.902C110.448 15.7934 105.762 10.9851 99.8006 10.9851C93.8393 10.9851 89.1536 15.9897 89.1536 21.902C89.1536 24.5269 90.2085 27.1273 91.705 28.8691L60.4018 97.7802L29.344 28.8936C30.8405 26.9311 31.8954 24.5269 31.8954 21.9265C31.8954 15.818 27.2097 11.0096 21.2484 11.0096C15.287 11.0096 10.6014 16.0142 10.6014 21.9265C10.6014 25.4101 12.0978 28.4766 14.6492 30.4392L4.61551 106.538C4.39472 108.722 5.6704 110.463 7.80471 110.905C9.71822 111.126 11.6317 109.825 12.0733 107.642L21.6654 32.8433H22.7203L56.9918 108.304C57.6297 109.825 59.1261 110.709 60.6226 110.709C62.1191 110.709 63.591 109.825 64.2534 108.304L98.3041 32.6225H99.359L108.927 107.421C109.147 109.384 110.84 110.684 112.557 110.684H112.974C115.109 110.463 116.605 108.501 116.384 106.538H116.409ZM21.0276 25.1893C19.3349 25.1893 17.8384 23.6683 17.8384 21.9265C17.8384 20.1847 19.3349 18.6637 21.0276 18.6637C22.7203 18.6637 24.2168 20.1847 24.2168 21.9265C24.2168 23.6683 22.9411 25.1893 21.0276 25.1893ZM99.8006 25.1893C98.1079 25.1893 96.6114 23.6683 96.6114 21.9265C96.6114 20.1847 98.1079 18.6637 99.8006 18.6637C101.493 18.6637 102.99 20.1847 102.99 21.9265C102.99 23.6683 101.714 25.1893 99.8006 25.1893Z" fill="#22A6AE"/>
</svg>
