<svg width="120" height="120" viewBox="0 0 120 120" fill="none" xmlns="http://www.w3.org/2000/svg">
<path d="M110.146 55.502C109.899 51.8717 109.311 48.3053 108.317 44.8086C105.633 35.3646 100.79 27.2277 93.5905 20.5136C90.8534 17.9618 87.8731 15.7495 84.6581 13.8405C84.1742 13.5528 83.9888 13.6358 83.783 14.1318C82.146 18.0714 80.4861 22.0014 78.8359 25.935C76.3961 31.7523 73.9574 37.5709 71.5188 43.3895C71.1011 44.3873 70.6786 45.3827 70.2693 46.3842C70.0106 47.0161 70.0756 47.0992 70.7761 47.1112C70.9566 47.1136 71.1372 47.1112 71.3165 47.1112C77.5877 47.1112 83.8588 47.11 90.13 47.1148C90.4875 47.1148 90.8594 47.1196 91.2 47.2111C93.5231 47.8358 94.3537 50.443 92.9129 52.5229C88.6591 58.6641 84.4041 64.8052 80.1551 70.9512C75.1322 78.2166 70.1153 85.4868 65.0948 92.7545C61.042 98.6213 56.9892 104.488 52.9388 110.356C52.8558 110.477 52.8052 110.621 52.6789 110.876C53.6671 110.991 54.5506 111.103 55.4377 111.195C56.3091 111.285 57.1842 111.353 58.0569 111.431H62.0254C63.2158 111.316 64.4099 111.218 65.5979 111.084C71.6776 110.396 77.4107 108.599 82.8237 105.741C88.6567 102.661 93.6555 98.5635 97.9093 93.5405C101.406 89.4107 104.176 84.8308 106.239 79.8343C109.46 72.0369 110.718 63.9181 110.147 55.502H110.146Z" fill="#F7CE44"/>
<path d="M52.6235 63.6906C47.213 63.6906 41.8025 63.6954 36.3931 63.687C34.4011 63.6846 33.077 62.5255 32.888 60.5502C32.8363 60.0158 32.9964 59.4368 33.1577 58.9084C35.7528 50.4021 38.3624 41.8993 40.9731 33.3978C43.3901 25.5281 45.8131 17.6597 48.2301 9.79011C48.3432 9.42058 48.4275 9.04262 48.5503 8.56958C48.218 8.63939 48.005 8.6731 47.798 8.72726C43.9655 9.73474 40.2991 11.1599 36.8072 13.046C33.0854 15.0574 29.661 17.484 26.5663 20.3572C22.7411 23.908 19.502 27.9379 16.8936 32.4709C12.9444 39.3343 10.602 46.6935 9.9412 54.586C9.87861 55.3395 9.79435 56.093 9.71973 56.8453V61.6552C9.75584 61.8502 9.80759 62.0428 9.82565 62.239C9.96287 63.7532 10.0267 65.2759 10.2397 66.7793C11.1521 73.2297 13.1466 79.3264 16.2918 85.0438C19.7668 91.3607 24.3323 96.7387 30.0353 101.149C34.4336 104.549 39.2856 107.107 44.5408 108.911C45.2389 109.151 45.2979 109.118 45.4363 108.371C45.6843 107.033 45.9238 105.692 46.167 104.352C47.6896 95.9371 49.2123 87.5234 50.7361 79.1085C51.6136 74.2613 52.4959 69.4141 53.3686 64.5657C53.525 63.6979 53.507 63.6918 52.6247 63.6918L52.6235 63.6906Z" fill="#F7CE44"/>
</svg>
