<svg xmlns="http://www.w3.org/2000/svg" width="251" height="160" viewBox="0 0 251 160" fill="none"><path d="M51.4701 15.7698L29.3101 78.8198H53.2701C64.0801 78.8198 72.3301 81.0698 78.0401 85.5798C83.0801 89.4798 85.6001 94.5598 85.6001 100.8C85.6001 107.59 83.2001 113.89 78.4001 119.72C73.3601 125.79 67.2601 129.27 60.1201 130.18C61.1401 127.6 61.6501 125.02 61.6501 122.43C61.6501 116.48 59.3101 111.4 54.6301 107.16C49.9501 102.92 44.2701 100.81 37.6001 100.81C30.9301 100.81 25.4501 102.92 20.8101 107.16C16.1601 111.4 13.8301 116.48 13.8301 122.43C13.8301 128.01 15.9001 132.85 20.0401 136.93C24.1901 141.01 29.3801 143.47 35.6201 144.32C41.0801 145.17 46.5101 145.59 51.9301 145.59C77.1401 145.59 96.7801 138.36 110.84 123.88C119.43 115.12 123.69 105.71 123.63 95.6898C123.51 86.3798 119.57 78.5198 111.83 72.0898C104.63 66.1398 94.0201 63.1698 80.0301 63.1698H67.3301L75.2501 41.4598H121.54L132.43 15.7898H51.4701V15.7698Z" fill="white"></path><path d="M203.13 15.7698L124.14 142.5H145.22L225.21 15.7698H203.14H203.13Z" fill="white"></path><path d="M196.01 2.94L185.75 19.4C180.41 8.52 169.21 1 156.29 1C152.4 1 148.67 1.68 145.2 2.94H42.54L40.33 8.76L11.21 91.64H20.99C17.84 93.17 14.9 95.18 12.17 97.66C4.86 104.31 1 112.87 1 122.41C1 131.41 4.48 139.57 11.04 146.05C17.15 152.08 24.81 155.76 33.78 156.99C39.81 157.91 45.92 158.38 51.93 158.38C74.89 158.38 94.13 152.87 109.34 142L101.04 155.33H152.3L248.46 2.94H196.01Z" stroke="white" stroke-width="2" stroke-miterlimit="10"></path><path d="M156.29 53.7798C167.32 53.7798 176.27 44.8398 176.27 33.7998C176.27 22.7598 167.32 13.8198 156.29 13.8198C145.26 13.8198 136.31 22.7598 136.31 33.7998C136.31 44.8398 145.25 53.7798 156.29 53.7798Z" fill="white"></path></svg>