<?xml version="1.0" encoding="UTF-8"?><svg id="Layer_2" xmlns="http://www.w3.org/2000/svg" viewBox="0 0 300 300"><defs><style>.cls-1{fill:#3ae7a7;}.cls-2{fill:#fff;}.cls-3{fill:#a761ff;}</style></defs><g id="Layer_1-2"><rect width="300" height="300"/><polygon class="cls-2" points="90 160 40 160 40 190 90 190 90 240 120 240 120 190 120 160 90 160"/><polygon class="cls-1" points="140 110 90 110 90 140 140 140 140 190 170 190 170 140 170 110 140 110"/><path class="cls-3" d="M220,60h-70v30h70c5.51,0,10,4.49,10,10s-4.49,10-10,10h-30v30h30c22.06,0,40-17.94,40-40s-17.94-40-40-40Z"/></g></svg>