<svg width="125" height="121" viewBox="0 0 125 121" fill="none" xmlns="http://www.w3.org/2000/svg">
<path d="M124.159 0.836136C119.354 26.0707 94.1793 50.2597 62.3294 50.2597C30.8012 50.2597 5.44601 26.4528 0.640381 0.87635C17.6511 19.757 37.7382 30.0721 62.4098 30.0922C87.0412 30.1123 107.108 19.9581 124.179 0.836136H124.159ZM40.6136 82.3308V117.478C45.2181 118.644 49.0988 119.63 53.7637 120.816V65.8227C32.8321 62.9876 15.379 53.5171 1.08274 37.934C6.57202 59.2879 19.9835 73.6444 40.6136 82.3308ZM70.4527 66.0037C71.076 84.5225 69.8294 102.317 71.6591 120.836C76.4045 119.509 79.9835 118.524 84.2061 117.337V82.2101C104.655 73.564 118.006 59.3683 123.476 38.2959C109.199 54.0198 91.5452 63.0881 70.4527 66.0037ZM0.781132 73.9461C4.70204 87.6994 11.5988 98.8187 23.6028 107.867V92.9675C15.7409 86.4125 8.4621 80.3402 0.781132 73.9461ZM123.295 75.1726C115.795 81.3254 108.797 87.056 101.74 92.8469V107.344C112.597 98.2356 119.796 88.2222 123.295 75.1726Z" fill="url(#paint0_linear_1159_12890)"/>
<defs>
<linearGradient id="paint0_linear_1159_12890" x1="62.4098" y1="120.836" x2="62.4098" y2="0.836136" gradientUnits="userSpaceOnUse">
<stop stop-color="#488995"/>
<stop offset="1" stop-color="#86C68C"/>
</linearGradient>
</defs>
</svg>
