<svg width="81" height="74" viewBox="0 0 81 74" fill="none" xmlns="http://www.w3.org/2000/svg">
<path d="M1.43677 21.5443C2.37354 20.7949 3.87237 20.6076 4.99649 21.919C5.7459 22.8557 6.12061 25.4785 6.30796 26.2278C6.68267 28.8506 7.24473 32.5975 7.24473 35.4076C7.24473 35.5949 7.24473 35.7823 7.24473 35.9696C7.24473 37.0937 7.61944 38.2177 7.99414 39.3418C10.9918 45.1494 16.2377 52.4557 16.2377 52.4557L16.6124 52.8304C16.7998 53.2051 17.3618 53.2051 17.5492 53.0177C17.9239 52.8304 18.1112 52.2684 17.9239 51.8937L10.8044 40.2785C10.055 38.9671 10.4297 37.0937 11.9286 36.3443C13.4274 35.5949 15.1136 35.9696 16.0504 37.281L23.5445 46.8354C24.1066 47.5848 25.0433 48.3342 25.6054 48.8962C32.3501 53.7671 33.2869 58.638 33.8489 61.0734C33.8489 61.0734 33.8489 61.6354 33.8489 62.5722C33.8489 63.3215 33.8489 64.0709 33.6616 64.8203L33.2869 72.876C33.2869 73.438 32.7248 74 32.1628 74H19.6101C19.048 74 18.4859 73.438 18.4859 72.876L18.2986 66.319L6.12061 51.7063C4.43443 49.8329 3.12295 47.7722 2.74824 45.1494L2.56089 44.4L0.5 24.1671C0.5 23.2304 0.687354 22.1063 1.43677 21.5443ZM9.49297 33.9089C9.49297 34.0962 9.49297 34.2835 9.49297 34.6582C9.68033 34.4709 10.055 34.2835 10.2424 34.0962C10.6171 33.9089 10.9918 33.7215 11.3665 33.5342C11.1792 31.4734 10.4297 27.5392 9.86768 25.4785C9.68033 24.5418 8.93091 23.7924 7.99414 23.4177C8.1815 24.1671 8.36885 24.9165 8.55621 25.4785C8.93091 27.7266 9.49297 31.6608 9.49297 33.9089ZM13.6148 33.1595C14.1768 33.1595 14.9262 33.3468 15.4883 33.5342C15.3009 32.2228 14.3642 29.4127 13.9895 28.2886C13.8021 27.3519 13.24 26.6025 12.1159 26.2278C12.4906 27.7266 13.24 30.5367 13.6148 32.0354V32.9722C13.6148 32.9722 13.6148 32.9722 13.6148 33.1595ZM76.3782 21.7316C75.6288 22.6684 75.2541 25.2911 75.0667 26.0405C74.692 28.6633 74.13 32.4101 74.13 35.2203C74.13 35.4076 74.13 35.5949 74.13 35.7823C74.13 36.9063 73.7553 38.0304 73.3806 39.1544C70.5703 44.962 65.137 52.4557 65.137 52.4557L64.7623 52.8304C64.5749 53.2051 64.0129 53.2051 63.8255 53.0177C63.4508 52.8304 63.2635 52.2684 63.4508 51.8937L70.5703 40.2785C71.3197 38.9671 70.945 37.0937 69.4461 36.3443C67.9473 35.5949 66.2611 35.9696 65.3244 37.281L57.8302 46.8354C57.2681 47.5848 56.3314 48.3342 55.7693 48.8962C49.0246 53.7671 48.0878 58.638 47.5258 61.0734C47.5258 61.0734 47.5258 61.6354 47.5258 62.5722C47.5258 63.3215 47.5258 64.0709 47.7131 64.8203L48.0878 72.876C48.0878 73.438 48.6499 74 49.2119 74H61.7646C62.3267 74 62.8888 73.438 62.8888 72.876L63.0761 66.319L75.0667 51.8937C76.7529 50.0203 78.0644 47.9595 78.4391 45.3367V44.5873L80.5 24.3544C80.5 23.4177 80.3126 22.2937 79.5632 21.7316C79.0012 20.7949 77.5023 20.6076 76.3782 21.7316ZM69.8208 33.3468C70.1955 33.5342 70.5703 33.7215 70.945 33.9089C71.3197 34.0962 71.507 34.2835 71.6944 34.4709C71.6944 34.2835 71.6944 34.0962 71.6944 33.7215C71.6944 31.4734 72.2564 27.3519 72.6311 25.1038C72.6311 24.3544 72.8185 23.6051 73.1932 23.043C72.0691 23.4177 71.507 24.1671 71.3197 25.1038C70.945 27.3519 70.1955 31.2861 69.8208 33.3468ZM66.0738 33.5342C66.6358 33.3468 67.1979 33.1595 67.9473 33.1595V32.9722L68.1347 32.0354C68.322 30.5367 69.2588 27.7266 69.6335 26.2278C68.6967 26.6025 68.1347 27.3519 67.76 28.2886C67.0105 29.4127 66.2611 32.2228 66.0738 33.5342ZM31.6007 17.7975H21.4836V38.4051H31.6007V17.7975ZM35.7225 0H45.8396V38.4051H35.7225V0ZM43.0293 32.4101L39.6569 35.7823H43.0293V32.4101ZM38.3454 5.99494L41.5304 2.81013H38.3454V5.99494ZM38.3454 12.9266L43.0293 8.24304V4.87089L38.3454 9.55443V12.9266ZM38.3454 19.8582L43.0293 14.9873V11.8025L38.3454 16.4861V19.8582ZM38.3454 26.7899L43.0293 22.1063V18.7342L38.3454 23.4177V26.7899ZM38.3454 33.5342L43.0293 28.8506V25.4785L38.3454 30.162V33.5342ZM49.9614 9.36709H60.0785V38.4051H49.9614V9.36709ZM52.5843 35.7823H57.2681V12.1772H52.5843V35.7823Z" fill="white"/>
</svg>
