<svg width="121" height="121" viewBox="0 0 121 121" fill="none" xmlns="http://www.w3.org/2000/svg">
<path d="M119.452 67.3922C117.844 73.3146 115.952 79.1701 114.16 84.9922C113.222 84.758 112.854 84.7914 112.72 84.6241C108.985 80.2743 109.052 80.4082 104.078 83.3025C89.8597 91.6173 75.5407 99.7815 61.3055 108.08C58.8604 109.502 57.2861 109.251 55.3602 106.992C50.1517 100.886 44.5246 95.1306 39.333 89.0074C36.9548 86.1967 34.7274 86.0796 31.7632 87.7526C23.691 92.3367 15.5685 96.8203 7.4628 101.337C5.63734 102.358 3.82862 103.646 2.17064 100.953C0.562895 98.3093 2.32136 97.2553 4.18032 96.0842C14.2455 89.7268 24.3441 83.4028 34.3423 76.945C36.8041 75.3557 38.4956 75.6903 40.4885 77.7146C45.63 82.9511 50.9724 87.9869 56.1975 93.1564C58.4584 95.415 60.4179 95.7831 63.3989 93.8089C74.7201 86.3473 86.1418 79.0196 97.8146 72.1101C102.47 69.3496 101.298 66.4051 98.7525 62.0218C105.77 63.1929 111.497 64.0462 117.158 65.1671C118.079 65.3344 119.586 66.8736 119.452 67.3922Z" fill="white"/>
<path d="M57.0182 12.9526V83.2523C50.9389 77.4637 45.429 72.361 40.1033 67.0743C39.3832 66.3549 39.3665 64.7488 39.3497 63.561C39.2995 51.1139 39.3665 38.6667 39.2492 26.2196C39.2157 23.5093 40.1536 21.853 42.5485 20.6485C47.2042 18.2895 51.7762 15.7633 57.0182 12.9526Z" fill="#274472"/>
<path d="M87.2471 66.0371C87.2806 68.8979 86.3092 70.6211 83.8641 72.0097C79.0911 74.7032 74.4521 77.6142 69.093 80.8431C68.8418 78.7686 68.5571 77.4804 68.5571 76.1755C68.5068 63.8454 68.6073 51.4986 68.4733 39.1686C68.4398 36.291 69.4279 34.5846 72.007 33.3131C76.7967 30.9374 81.4692 28.3275 86.8954 25.4332C87.0294 27.6416 87.1801 28.9633 87.1801 30.285C87.1968 42.1967 87.0964 54.1253 87.2471 66.0371Z" fill="#274472"/>
<path d="M28.2462 69.634C28.2295 70.6378 27.7941 72.0599 27.0739 72.5618C21.8822 76.0918 16.5566 79.4378 10.1089 83.6036V68.7975C10.1089 66.8568 10.2931 64.8994 10.0754 62.9922C9.69019 59.4454 11.0635 57.3876 14.3794 55.9823C17.9299 54.4766 21.2124 52.3519 24.6121 50.4948C27.0237 49.1732 28.3132 49.8256 28.3132 52.6196C28.3132 58.291 28.3635 63.9625 28.2462 69.634Z" fill="#274472"/>
</svg>
