<svg width="121" height="121" viewBox="0 0 121 121" fill="none" xmlns="http://www.w3.org/2000/svg">
<path d="M26.9365 22.075C21.2255 29.3347 19.1885 38.7292 17.3142 47.7655C14.8075 59.8526 12.2961 71.9398 9.78939 84.027C8.56161 89.952 7.32917 95.877 6.10139 101.802C5.62236 104.351 4.52015 106.755 4.22715 109.35C3.92486 112.029 4.27366 113.689 7.40823 113.708C15.2354 113.759 23.0625 113.81 30.885 113.861C36.5077 113.898 44.7859 115.991 47.9577 109.936C49.2274 107.513 49.4878 104.709 49.7575 101.988C52.6131 73.1164 67.7744 11.5086 67.9371 10.6529C69.0673 4.6395 32.0244 15.6059 26.9365 22.075Z" fill="#FF0871"/>
<path d="M115.103 29.4557C113.907 26.3816 112.368 23.4051 110.461 20.6984C106.922 15.6803 101.597 11.7458 95.965 9.42975C93.0676 8.23917 89.9191 8.19731 86.8868 7.8113C83.808 7.41599 82.3431 7.69503 81.6222 11.09C77.8272 28.8883 74.009 46.6772 70.1164 64.4569C69.8931 65.4754 69.6699 66.545 69.9629 67.5496C70.9489 70.9772 80.0038 71.7445 82.8407 71.8654C88.3006 72.1073 94.7651 71.0144 99.4995 68.1914C104.718 65.0847 108.782 61.6339 112.019 56.3507C115.27 51.0489 116.223 46.0308 116.861 39.9012C116.484 36.3759 116.391 32.7763 115.103 29.4557Z" fill="#FF0871"/>
</svg>
