<svg width="183" height="60" viewBox="0 0 183 60" fill="none" xmlns="http://www.w3.org/2000/svg">
<g clip-path="url(#clip0_3038_1140)">
<path d="M127.48 51.2362C127.48 47.9342 127.48 44.6817 127.48 41.4292C127.47 40.503 127.364 39.5806 127.163 38.6775C127.081 38.0994 126.811 37.5669 126.395 37.1671C125.98 36.7672 125.444 36.5236 124.876 36.4761C124.308 36.3923 123.73 36.5027 123.23 36.7903C122.73 37.0778 122.336 37.5265 122.11 38.0666C121.68 39.0565 121.436 40.1208 121.391 41.2035C121.294 44.2249 121.353 47.2573 121.353 50.2787V51.2583H116.864V50.3227C116.864 47.1252 116.864 43.9222 116.864 40.7248C116.844 39.9494 116.727 39.1798 116.515 38.4353C116.402 37.9201 116.133 37.4544 115.748 37.1038C115.363 36.7532 114.88 36.5356 114.367 36.4816C113.858 36.3921 113.334 36.463 112.865 36.6851C112.396 36.9072 112.004 37.27 111.741 37.7254C111.27 38.4672 110.983 39.3153 110.903 40.1964C110.791 43.537 110.828 46.8776 110.812 50.2236V51.2748H106.36V33.3502C107.735 33.3502 109.078 33.3502 110.42 33.3502C110.554 33.3502 110.774 33.6804 110.791 33.9005C110.803 34.4643 110.785 35.0283 110.737 35.5901C112.074 33.7574 113.604 32.7228 115.677 32.7833C117.75 32.8439 119.157 34.0766 120.215 35.9313L120.822 35.2324C123.045 32.6403 126.594 31.9964 129.129 33.774C129.966 34.3474 130.653 35.1244 131.126 36.0358C131.599 36.9471 131.845 37.9644 131.841 38.9967C131.932 43.0527 131.868 47.1142 131.868 51.2362H127.48Z" fill="white"/>
<path d="M40.9332 25.6176C40.9332 26.0304 40.9762 26.3111 40.9762 26.5917C40.9762 31.6053 41.0245 36.6244 40.944 41.638C40.9244 43.0753 40.6964 44.5016 40.2674 45.8701C39.1074 49.4914 36.4225 51.2965 32.8515 51.8358C30.5607 52.2402 28.2055 51.9928 26.0424 51.1204C22.7131 49.717 20.8658 47.0534 20.6725 43.4817C20.4201 38.7432 20.5168 33.9828 20.4738 29.2279C20.4738 28.2483 20.4416 27.2687 20.4738 26.2891C20.4738 26.0689 20.753 25.6727 20.9141 25.6672C22.3694 25.6176 23.8031 25.6176 25.3551 25.6176V26.7183C25.3551 31.5338 25.3014 36.3493 25.3926 41.1592C25.4272 42.5157 25.7076 43.8538 26.2196 45.1052C27.0627 47.1469 28.8401 47.8183 30.929 47.7743C33.0179 47.7303 34.731 46.8387 35.4237 44.7695C35.8848 43.2962 36.1256 41.7598 36.1379 40.2126C36.2292 35.6889 36.1862 31.1651 36.1379 26.6413C36.1379 25.8598 36.3258 25.5736 37.1206 25.6176C38.3503 25.6837 39.5961 25.6176 40.9332 25.6176Z" fill="white"/>
<path d="M49.6538 35.4635C49.7344 35.3754 49.8256 35.2709 49.9384 35.1663C52.3495 32.8604 57.9933 32.7118 61.2153 35.9808C64.7541 39.5745 63.6425 45.5677 60.8555 49.189C59.8759 50.4379 58.5368 51.3384 57.029 51.7622C55.5211 52.1861 53.9212 52.1118 52.4569 51.5499C51.4313 51.1207 50.5774 50.2511 49.6807 49.6072V58.7043H45.2612C45.2612 58.4292 45.2236 58.154 45.2236 57.8183C45.2236 50.009 45.2236 42.1941 45.2236 34.3848C45.2236 34.2307 45.1699 33.6639 45.4384 33.5153C45.4969 33.4866 45.5619 33.4752 45.6264 33.4823C46.2063 33.5318 49.0953 33.2786 49.5142 33.4272C49.5755 33.4503 49.6294 33.4903 49.6699 33.5428C49.701 33.5978 49.7159 33.6609 49.7129 33.7244C49.6968 33.873 49.6807 34.5334 49.6538 35.4635ZM58.3907 41.5778C58.3345 40.4411 57.9903 39.3391 57.3919 38.3803C57.0746 37.8576 56.6458 37.4153 56.1378 37.0869C55.6298 36.7584 55.0557 36.5523 54.4587 36.484C53.8618 36.4156 53.2574 36.4869 52.6912 36.6924C52.125 36.8979 51.6116 37.2322 51.1896 37.6703C48.8913 40.0533 49.0416 45.144 51.442 47.3618C52.1946 48.0386 53.173 48.3918 54.1733 48.3477C55.1736 48.3036 56.1188 47.8657 56.8119 47.1252C58.0202 45.7714 58.3907 44.1203 58.3907 41.5778Z" fill="white"/>
<path d="M152.413 43.4882H139.842C139.471 45.4639 140.964 47.6488 142.994 48.2101C145.142 48.8045 146.952 47.7533 147.752 45.4584H152.23C152.101 47.1269 151.358 48.6829 150.152 49.8116C146.801 53.0751 139.117 52.9595 136.335 47.7973C134.338 44.0991 134.391 37.3409 138.977 34.215C144.347 30.5827 151.425 33.7912 152.209 40.3017C152.327 41.3033 152.348 42.3325 152.413 43.4882ZM139.74 40.1256H147.687C147.713 39.6128 147.633 39.1003 147.453 38.6211C147.273 38.1419 146.997 37.7067 146.643 37.3436C146.289 36.9806 145.864 36.6977 145.396 36.5133C144.929 36.329 144.429 36.2472 143.928 36.2732C141.641 36.2622 139.82 37.9187 139.75 40.1256H139.74Z" fill="white"/>
<path d="M84.9718 41.5777C84.9717 40.0849 85.3467 38.6172 86.0605 37.316C86.7743 36.0147 87.803 34.9238 89.0475 34.1481C93.4026 31.3634 101.565 32.4971 102.816 40.2679C103.234 42.4289 103.038 44.6674 102.252 46.7178C100.641 50.6528 97.0971 52.2212 93.1985 51.9461C87.8984 51.5718 84.9234 47.6314 84.9718 41.5777ZM89.4664 42.2051V42.3812C89.5684 43.1461 89.6221 43.9221 89.7779 44.6761C89.9416 45.59 90.3765 46.4298 91.0233 47.0809C91.6701 47.7319 92.4973 48.1625 93.3918 48.3138C94.2619 48.4415 95.149 48.2793 95.9224 47.8513C96.6958 47.4233 97.3147 46.752 97.6878 45.9364C98.2014 44.829 98.4679 43.6183 98.4679 42.3922C98.4679 41.1661 98.2014 39.9553 97.6878 38.848C97.3793 38.1251 96.869 37.5121 96.221 37.086C95.5731 36.66 94.8166 36.4401 94.0469 36.454C93.0773 36.4034 92.1228 36.7164 91.362 37.3346C90.9853 37.6904 90.6726 38.1114 90.4384 38.5783C89.8459 39.6982 89.5133 40.943 89.4664 42.2161V42.2051Z" fill="white"/>
<path d="M167.255 45.0667C168.689 45.0667 170.037 45.0667 171.379 45.0667C171.541 45.0667 171.771 45.3474 171.825 45.54C172.545 48.1101 174.655 49.2052 177.061 48.2311C178.054 47.8294 178.586 47.1305 178.575 46.2609C178.575 45.2263 177.856 44.786 177.034 44.5604C175.595 44.1696 174.123 43.9055 172.679 43.5202C171.1 43.102 169.613 42.4196 168.678 40.9777C168.297 40.3992 168.042 39.7428 167.931 39.0537C167.821 38.3646 167.858 37.6592 168.039 36.986C168.22 36.3128 168.542 35.6879 168.981 35.1542C169.42 34.6206 169.968 34.1909 170.585 33.8948C172.129 33.0267 173.876 32.6116 175.636 32.6951C177.395 32.7786 179.098 33.3574 180.557 34.3681C182.168 35.4192 182.871 37.0482 182.876 39.123C181.48 39.123 180.138 39.123 178.795 39.123C178.64 39.123 178.425 38.8258 178.36 38.6277C178.182 38.0972 177.886 37.6164 177.495 37.2235C177.104 36.8306 176.63 36.5362 176.109 36.3638C175.588 36.1913 175.035 36.1455 174.494 36.2299C173.952 36.3143 173.438 36.5267 172.99 36.8501C172.776 36.9924 172.602 37.1911 172.488 37.4257C172.373 37.6602 172.323 37.9219 172.341 38.1834C172.359 38.4448 172.445 38.6965 172.591 38.9122C172.736 39.1278 172.935 39.2995 173.168 39.4092C174.033 39.7485 174.921 40.0207 175.826 40.2237C177.196 40.5414 178.549 40.9308 179.88 41.3904C181.776 42.1554 182.946 43.5588 183.011 45.7931C183.091 46.8254 182.867 47.8587 182.367 48.7587C181.867 49.6587 181.115 50.3838 180.208 50.8398C178.724 51.6749 177.057 52.1064 175.365 52.0929C173.673 52.0794 172.012 51.6214 170.542 50.7627C168.442 49.6015 167.406 47.6313 167.255 45.0667Z" fill="white"/>
<path d="M82.6951 40.2023C81.2344 40.2023 79.9134 40.2023 78.5924 40.2023C78.4152 40.2023 78.1467 39.9051 78.0984 39.7015C77.7118 38.012 76.8472 36.7957 75.0644 36.5371C74.2796 36.4017 73.4733 36.5016 72.7426 36.8247C72.0119 37.1479 71.3879 37.6806 70.9457 38.3587C69.3347 40.6261 69.5173 44.9298 71.3001 46.944C71.7958 47.543 72.4494 47.9829 73.1826 48.2113C73.9159 48.4397 74.6978 48.4468 75.4349 48.2318C77.0459 47.8521 77.8568 46.6908 78.1843 45.1774C78.3293 44.517 78.5924 44.4234 79.1402 44.4399C80.3484 44.473 81.5513 44.4399 82.8615 44.4399C82.4642 47.3292 81.3365 49.6792 78.818 50.9505C77.396 51.7111 75.8153 52.107 74.2113 52.1041C72.6073 52.1012 71.0279 51.6997 69.6086 50.934C66.6605 49.3985 65.522 46.6083 65.3126 43.3833C65.0763 39.6135 66.0429 36.3555 69.3508 34.1981C72.8198 31.9362 78.1199 32.4701 80.6921 35.3318C81.8773 36.6769 82.5833 38.3936 82.6951 40.2023Z" fill="white"/>
<path d="M160.205 33.3218V36.0735C161.697 33.7511 163.4 32.3312 166.112 32.9366V37.2458C165.461 37.2016 164.808 37.2016 164.157 37.2458C161.697 37.587 160.398 39.0289 160.328 41.5824C160.253 44.4332 160.285 47.284 160.269 50.1402C160.269 50.4814 160.269 50.8226 160.269 51.2409H155.823C155.823 50.9877 155.764 50.6906 155.764 50.4429C155.764 45.0551 155.764 39.6673 155.764 34.2739C155.764 33.4924 156 33.2943 156.73 33.3273C157.831 33.3879 158.986 33.3218 160.205 33.3218Z" fill="white"/>
<path d="M49.0769 24.5152C48.1457 25.4637 46.8844 25.9964 45.5695 25.9964C44.2545 25.9964 42.9932 25.4637 42.062 24.5152L30.9443 13.1561L27.2587 9.39044C26.3474 8.55009 25.1635 8.08492 23.936 8.08492C22.7084 8.08492 21.5245 8.55009 20.6133 9.39044L21.878 8.08933L25.3855 4.50575C25.4463 4.44802 25.5115 4.38585 25.568 4.32368L27.4239 2.40978C28.3218 1.4902 29.5313 0.958465 30.8022 0.924576C32.0731 0.890688 33.3082 1.35724 34.2518 2.22771L37.9418 5.99336L49.0769 17.3525C50.0058 18.3018 50.5277 19.5892 50.5277 20.9316C50.5277 22.274 50.0058 23.5614 49.0769 24.5108V24.5152Z" fill="#FF33B8"/>
<path d="M30.9443 13.1552L23.9469 20.318L8.94361 35.6292C8.01223 36.5797 6.74946 37.1131 5.43311 37.1123C4.11675 37.1115 2.85464 36.5764 1.92441 35.6248C0.994184 34.6732 0.472046 33.383 0.47286 32.0381C0.473676 30.6931 0.997377 29.4036 1.92876 28.4532L16.919 13.1552L18.5575 11.49L20.6089 9.38959C21.5202 8.54925 22.7041 8.08408 23.9317 8.08408C25.1592 8.08408 26.3431 8.54925 27.2544 9.38959L30.9443 13.1552Z" fill="url(#paint0_linear_3038_1140)"/>
<path d="M30.9443 13.1552L28.8931 15.2509L25.2031 11.4897C24.2919 10.6493 23.1079 10.1842 21.8804 10.1842C20.6529 10.1842 19.4688 10.6497 18.5575 11.49L20.6091 9.39369C21.5204 8.55335 22.7043 8.08818 23.9318 8.08818C25.1594 8.08818 26.3433 8.55335 27.2545 9.39369L30.9443 13.1552Z" fill="url(#paint1_linear_3038_1140)"/>
</g>
<defs>
<linearGradient id="paint0_linear_3038_1140" x1="2.5" y1="35.4995" x2="27" y2="10.9995" gradientUnits="userSpaceOnUse">
<stop stop-color="#FF33B8"/>
<stop offset="1" stop-color="#991F6E"/>
</linearGradient>
<linearGradient id="paint1_linear_3038_1140" x1="2.5" y1="35.4995" x2="27" y2="10.9995" gradientUnits="userSpaceOnUse">
<stop stop-color="#FF33B8"/>
<stop offset="1" stop-color="#991F6E"/>
</linearGradient>
<clipPath id="clip0_3038_1140">
<rect width="183" height="60" fill="white"/>
</clipPath>
</defs>
</svg>
